<?xml version="1.0" encoding="utf-8"?>
<!-- Generator: Adobe Illustrator 24.1.2, SVG Export Plug-In . SVG Version: 6.00 Build 0)  -->
<svg version="1.1" xmlns="http://www.w3.org/2000/svg" xmlns:xlink="http://www.w3.org/1999/xlink" x="0px" y="0px"
	 viewBox="0 0 1920 1080" style="enable-background:new 0 0 1920 1080;" xml:space="preserve">
<style type="text/css">
	.st0{fill:#B40301;stroke:#B40301;stroke-miterlimit:10;}
	.st1{fill:#B40301;}
	.st2{fill:#BE2321;}
</style>
<g id="color">
	<polygon class="st0" points="15.5,167.1 40.5,856.8 1898.9,833.8 1874.6,129.6 	"/>
</g>
<g id="Layer_1">
	<g>
		<line class="st1" x1="1920" y1="132.5" x2="0" y2="132.5"/>
		<g>
			<g>
				<g>
					<g>
						<path class="st2" d="M303.7,144.1c0.8,0.1,1.1,0.4,1.1,0.7c0.7-0.1,1.4-0.2,2.1-0.3L303.7,144.1z"/>
						<path class="st2" d="M111.1,170.5c-0.1,0-0.2,0-0.3,0c0.4,0.3,0.8,0.5,0.9,0.9C112,170.9,112,170.9,111.1,170.5z"/>
						<path class="st2" d="M159.6,164c0.9,0.3,1.7,0.5,2.4,0.9C162,164.6,160.9,164.3,159.6,164z"/>
						<path class="st2" d="M277.2,142.5c2.2,0.4,4.3,0.9,6.6,1.4C283.1,143,280.6,142.1,277.2,142.5z"/>
						<path class="st2" d="M153,162.8c1.7,0.4,4.5,0.8,6.5,1.2C157.6,163.4,155.4,163,153,162.8z"/>
						<path class="st2" d="M19.6,171c1.3,0.3,2.8,0.6,4.3,0.9c0.1-0.2,0.4-0.3,0.3-0.6L19.6,171z"/>
						<path class="st2" d="M1908.7,102.5c-4.3,0.4-5,1.1-4.4,1.9C1905.1,103.8,1906.4,103.1,1908.7,102.5z"/>
						<path class="st2" d="M1802.9,102.4c0.8-0.2,1.6-0.4,2.3-0.6C1803.5,102,1802.4,102.3,1802.9,102.4z"/>
						<path class="st2" d="M1863.7,116c0.1,0.4,0.4,0.7,0.8,1C1864.9,116.7,1864.8,116.4,1863.7,116z"/>
						<path class="st2" d="M1122.5,159.4l2.6,0.9C1124.6,159.8,1123.7,159.5,1122.5,159.4z"/>
						<path class="st2" d="M983,163.7c-0.4,0-0.8,0-1.2,0C982.2,163.7,982.6,163.7,983,163.7z"/>
						<path class="st2" d="M978.9,163.6c1,0,1.9,0,2.9,0C980.6,163.6,979.5,163.5,978.9,163.6z"/>
						<path class="st2" d="M15.1,166c-3.4,1.6-11.8,2.1-12,4.1l16.4,0.9C13.8,169.5,10.8,167.3,15.1,166z"/>
						<path class="st2" d="M1432,90.4c-5.3,0.2-8,0.5-9.3,0.9c3.2-0.3,6.5-0.5,9.6-0.8L1432,90.4z"/>
						<path class="st2" d="M1309.8,108.4c0.2-0.1,0.3-0.1,0.5-0.2c-0.3,0-0.5,0.1-0.8,0.1L1309.8,108.4z"/>
						<path class="st2" d="M1441.5,88.5c0.6-0.3,1.3-0.6,1.7-1C1441.1,87.5,1441,88,1441.5,88.5z"/>
						<path class="st2" d="M331.1,136.3c0.8-0.1,1.4-0.3,2.3-0.4C332.3,136,331.6,136.2,331.1,136.3z"/>
						<path class="st2" d="M1317.9,111.2l-8.1-2.8c-1.1,0.5-2.2,0.9-3.7,1.5C1304.6,112.1,1314,111.9,1317.9,111.2z"/>
						<path class="st2" d="M1441.5,88.5c-2.1,1-5.4,1.6-9.3,2.1l4.4,1.5C1447.4,91.9,1442.6,89.8,1441.5,88.5z"/>
						<path class="st2" d="M1918,110.8c-5-1.6,12.5-4.2,2-4.9l-10.3,3.6c1.7-1.7-4.2-3.7-5.3-5.2c-4.1,3.3,13.3,5.5,1.1,10.1
							c-2.8,2-12.1,1.6-16.8,1.2c10.4,0.7-0.3,3.1-4.5,4.3c-6.4-1.4-16.7-0.7-19.7-2.9c-1,0.8-6,1.2-9.4,0.9l-0.3-1.1
							c-7.7,1,2.6,1.1,0.6,2.3c-5.6,0.4-14.2-2-23.3-1.9c9.1-0.2,16.6-1.7,23.1-3c-16.5-2,2.9-5.7,6.6-8.6
							c-13.3,1.4-18.3,3.5-29.2,5.4c-13.2-2.3,1-8.2,4.4-8.6c-12,1.6-24.7,5.3-31.1,6.5c9-4.4,7.4-5.8,15.5-9.3
							c-9.7-2.5-11.6,0.6-16.2,2.3c2.7-0.4,6.9-0.7,7.8,0.2c-11.5-0.4-9.5,6.4-15.5,9.3c-8.5-1.8-24.7-2.7-23.6-6.7l0.1,4.2
							c-9.9,1-5.2-2.2-6.7-3.6c-3.7,2.9,0.9,7.1-15.8,8.2c2.6-6.9-14.9-0.6-14.5-6.8c-7.8,0.4-11.4,3.9-19.6,3.2
							c-9-3.5,12.3-8.4,17.2-7.4c11.3-0.2-1.5,2.9,3,2.8l10.8-1.9c-6-1.3-17.9-2.8-16.4-5.7c-11,1.3,8.9,3-3.2,4.6l-7.3-1.6
							c-12,1.6,2.5,4.8-13.2,5.6c10.5-3-17.1,0-16.1-4.5c-0.6,5.7-28.2,0.8-31.4,5.4l8.3,1.3l-1.9-2.5c9.1-0.2,16.6-1.7,25.9-0.7
							c-7.4,2.1,2.5,4.8-6,6.6c-16.1,3.4-4.3-3-6.6-3l-12.8,3.1l8.7,2.4c-10,1-23.5,1.3-37.3,1c-20.3-3.3,2.5-3.2-12.1-6.3
							c-6.5,1.3-4.9,2.7-14.1,2.2c5,1.6,8.9-0.7,12.3-0.5c4.5,3.6-16.6,1.7-15.6,5.1c-3.8-1.3-3.1-2.8-0.1-4.3
							c-15.5,1.4-30.5,0.8-36.3-3.6l-6.7,4.4c-26.6-1.5,18.2-4-4.2-6.7c-9.2-0.4-18.3-0.2-22.3,1.5l8,0.1c-6.1,2.4-5.6,4.1-15.4,5.7
							c-7-0.4-3.2-3.3-11.6-0.9c-21.2-2.5-6.5-6.7-3.1-10.7c-15.5-2.3,7.8-8.3-2.6-6.5l2.8,1l-16,5.8c15,4.8,6-4.5,11.9,0.4l9,0.4
							c-2.8,2.5-23.5,0.7-25.4,3.5c-0.2-1.4,2.1-4.8,11.4-5l-5.6-5.4c-5.4-0.5-9,3.1-11.9,0.6c-8-3.5,11.8-5.5-8-6.9
							c-21.1-1.2-19.8,5.5-34.2,4.6c1.5,1.2,5,1.1,9.5,1.3c-4.7,1.8,3.5,3.3-4.3,4.7c-4.5-3.6-19.6-3.4-31.1-3.3
							c3-2-4.4-3.9-0.8-5.1c-5.9,0.5-11.3,1.1-13.8,2.7c23.5,2.7-22.8,3.1-4.5,6.7c-18.3-0.2-21.8-3.5-33.2-5.4
							c0.8-1.1,21.1-2.3,4.8-3.8c-18.7,3.8,3.3,5.3-11.2,9.9l11.7,1.3c1.5,4.6-20.3,1.2-23.4,2.2c-7.2-1.2,10.1-1.3,3-4.5
							c-10.8-1-16.3,1.9-23.2,0.2c6.7-3.2,2.4-1.9,10.1-4.7c-25.4,0.1,1.3-3.7-18.1-5.6c-6.2,0.6-2.2,3.3-12.2,2.7
							c5.8,3.4,5.1,4.5,21.1,4.6c-5.6,4.9-21.1-1.2-32.3,1.8c9,0.4,2.8,1,12.5,0.2c1.3,4.1,4.9,4.7-3.9,8.6
							c10.4-1.1,14.9-5.5,29.9-4.4c4.1,4.2-18.3,3.3-18.5,8.7c-7.4,2.8-25.5,0.5-33.7-1.5c-14.5,3.4-32.3,3.5-43.3,8.4
							c-10.5-1.6-36.6,3.1-56.4,1.7c-3-2.4-24.3-1.6-12.1-4.2c-1.7,0.8-18.1,1.3-13.8,3.4c1.7-0.8,3.5-0.1,7.1-0.3l-3.2,3
							c-9.5-1.3-20.2,2.6-29.3,0.8c-3-2.4,17.2-1.6,11-4.4c-8.8,4.5-44.6,6.5-56,4.6c-7.7-0.6-8.6-4.4-11.8-4.8l-12.9,0.3
							c-1.5-1.2-1.7-2.7-4.1-4.2c-6.3-0.8-10.6,0.4-14.6,1.1c-16.8-2.4-7.8-5.5,0.8-8l9.5,1.3c6.9-1.7,16.8-1,11-4.4
							c-4.8,0.4-4.6,1.8-6.3,2.6l-5.6-2c-5.6,1.5-21.1,2.3-19.4,4.9c-11.4-1.9-24.4,0.4-34.5-1.7c6.9,1.7-1.9,2.8,0.2,4.9l12.1,0.8
							c-9.7,0.8-23.7,2.7-32.8,0.9c1.1-1.7,1.5-2.2-3.2-3.9c6.5,2.3-17,3-2.8,5.9c5.2-0.9,10.1-1.3,16.8-1c4.4,3.6-6.2,4-12.2,6.1
							c-7.5,0.8-22,2-32.1,3.3c-6.3-0.8-8.2-4.9-19-2.5c13.8,3.4-13.1,5.8-16.6,9.3c-10.5-1.6-17,3-25.4,0.1
							c4.3-1.3,20.3-1.2,24.4-3.9c0.6-2.6-3.5-6.7,12.3-8.1c-19.1-1.3-11.2,2.2-20,3.2l6.5-0.4c-3,1,2.6,3-3.2,3
							c-22.4-0.9-26.3-3.7-41.4-6.9c3.4,1.9-3.5,3.6-7.1,3.7c-14.5-2.3,0.2-5.4-8.7-9.3c-5.1,2.4-15,1.7-11.6,3.5
							c-5.8,0-2.8-1-6.9-1.7c-3.7,2.1-8,3.4-16,3.3c0.7-1.1,1.8-2.8,9.5-2.2c-8.6-0.9-11.7-4.8-8-6.9l14,1.4
							c6.4-2.6-13-1.1-12.5-3.7c6.2-0.6,10.8,1,14.8,0.3c-3.9-2.7-16-0.1-23.1,0.2c-11.2-0.5-7.1-3.2-7.3-4.6
							c-19,4.4,22,4.9,4.3,9.1c-6.7,3.2-23.7,2.7-35.6,3.4c10.3,3.6-1.1,5.1-13.5,6.3c16.1,0.1,4.1,4.2,23,1.8l0.4,2.9
							c-8,0-17.5-1.3-25.6-1.4c1.7-0.8-0.2-1.4,2.4-1.9l-23.9,1.3l2.4-1.9c-14.7-0.3-32.8-2.5-41.6-1.4c7.1-0.3,13.2,2.6,5.8,3.4
							c-4.3,1.3-12.1,2.6-18.9,2.4c-3.5-3.3-28.9-3.2-12.9-6.6c-20.7,1.7-13.1,2.3-32.9,4.4l13.3-0.9c1.7,2.6-9.3,7.1,3.4,8.7
							c-14.9,1.7-5.4,6.4-25.4,7c-8.1-1.6,2.4-5.4,13.6-6c-5.6-0.2-10.8-1.7-16.6,0.2c-4.3-2.2,10.6-3.9,10.1-4.7
							c-10.3-0.1,0.2,1.4-9.5,2.2c-17,3-10.8-4.5-27.1-2.6c3.6-0.1,9.9,0.7,5.6,2c-21.8-0.1-12.1,2.7-28,4c-9-3.8-5-8-19.4-8.8l8,0
							c-5.6-2-11.9-2.8-17.7-2.7c-29.9,3.3-54.5,9.2-85.3,12.2l11-1c3.7,1.3-9.2,1.6-9,3.1l-6.9-1.7c-1.9,2.8,15.5,2.7,11.4,5.4
							c-0.9-0.3-3.2-0.4-4.5-0.2l6.4,0.8c-14.4-0.9-25.8,4.1-36.6-0.4c28-0.6,4.3-8.1,31.7-9.6c-14.5,1.1-2.6-3-4.1-4.2
							c-7.7-0.6-3.8,2.1-12.3,1.2c0.2-2,18.7-3.8,10.5-5.3c-0.9,3.1-8.6,2.5-12.3,4.6c-6.3-0.8,0.2-2-2.6-3
							c-3.5,0.1-5.6,1.5-8.8,1.1l2.4-1.9c-17.7-2.7-5.4,2.9-25.5,2.1c-0.6,2.6,5.6,2,14,1.4c4.3,5.6-25.9,6.1-24.3,12.2
							c-19,0.9,5-2.4-11.2-3.9c-8.9-3.8,11.9-4.1,16.1-6.8l-16.8-2.4c5.6-4.9,16.1-3.3,19.1-7.8c-12.5-0.2-11,1-23.7,2.7
							c20.5,3.7-8.9,3.1,2.8,7.8c-9.5-1.3-6.5-2.3-20.3-2.3c8.8-1.1,0.4-4,11.9-4.1c-18.7,0.4-13.6,1.4-32.3,1.8
							c-5.8,3.5,18.8,4.5-3.6,7c-4.9,0-3.9-1.3-1.1-1.3c-16-1.4,3.3,4.3-6.8,6.1c-7,0.4-9.5-0.9-6.6-1.8c-10.5,1.9-4.7,4.2-11.7,5
							l3.2,0.4c-3,1,5.2,5.9-9.9,6.2c-11,0-7.6-2-7.8-3.1c-8.6,1.2-15.2,0.2-21-1c0.6,0.7-0.1,1.4-2.7,1.4
							c-14.6,1.1-8.4-2.9-13.8-3.4c-20.7-1.7,2.6,6.4-20.5,6.6l26.9,1.1c-1.1,1.7-1.7,4.2,4.1,4.2c0.5-2.6,10.1-4.7,19.1-4.4
							c2.6,3-24.1,3.3-9,6.5c-5.4-0.5-12.9,0.3-19.6,0c6.7-3.2-21.5-0.6-9.9-4.1c-29.3,0.8-33.6-1.4-60.5,0.9
							c2.4-1.9,19.6-6.9,33.6-5.5l1.1,1.8c17.5-2.1-13.7-2-10.5-5c-21.6,4.8-47.9-2.3-74.4-0.5c4.7,1.6-0.6,2.6-1.7,4.2
							c10.6-0.4,8.8-1.1,16.6,1c-1.5,2.2-7.8,1.4-11.2,3c-2.8,2.5,8,0,11.8,1.3c-10.1,1.3-9.2,1.6-15.1,3.7c-5.6-2-4.8-3.1-9.1-5.3
							c-25-0.5-22.2,3.9-42.4,3.1c11.2,0.5-5.2-2.5,6.9-1.7l-6.7-0.3c17.4-3.6,47.2-3.5,44.3-9.3c-14.2,0.6-24.5,3.9-41.8,4l0.7-1.1
							c-12.5-0.2,0.2,1.4-2.8,2.5c-14,2-18.1-5.6-27.8-1.5l14.3,0.9c-10.8,2.4,3.2,0.4,0.6,4.3c-19.2,2.9-52.5,1-79.7,3.8
							c7.8,2.1,10.1,2.1,20.3,2.3c-4.6,5.3-8.8,4.5-3.8,9l12.5,0.2l0.2,4.9c-3.4,0.1-6.8-0.2-9.8-0.6c-1.7,3.1-19-0.9-19.8,2
							l10.6-0.4c5.2,2.5-7.3,2.3-14.8,3.1c7.1,3.2,23.2-0.2,38.3-0.4c-1.1-1.8,14-5.4-0.7-5.8c0.2-2,9-3.1,14.8-3.1
							c-3,1,11.4,5.3-2.3,6.8c13.1-2.3,5.8,0,20.3-1.2c-2,1.3,25.4-0.1,23.7,4.1c4.6-1.8-0.2-6.2,16.6-6.4
							c-4.1-2.9-22.9-3.3-10.3-6.5l-8.2,2c-11.8-1.3,3.2-3-12.1-4.2c4.5,0.2,13.6-1.4,15.7,0.7c-3.9-6.2,22.8-3.1,23.5-7.6
							c3.4,1.9,7.8,2,16.3,1.5c-1.2,1.7,3.5,3.3-3,4.5c-5.4-0.5-9.3,0.2-15.3-1.2c3.3,6.2,21.8,1.9,35.8,3.2c-2-0.5-2.5-1.1,1.4-2
							c8.6,0.9,27.4,2,22,4.9l43.1-0.8c0.2,1.4-6.1,0.6-8.8,1.1l24.1,0.1c5.6,2-8.2,2-10.6,3.9l17.4-0.1l-2.4,1.9
							c4.3-1.3,24.3-1.9,29.1,1.2c19-0.9,18.7-7.3,44.4-4.5c-0.9,3.1-14.6,1.1-20.5,3.2c5,1.1,20.3-1.2,22.9,1.8
							c18.5-1.8,16.4-7.3,25.4-10.4c15.1-0.2,1.7,2.6,2.3,3.5c4.5,0.2,11.8-5.5,15.8-1.3c7.3-2.3,11.4-5,0.6-6
							c8,0,19.4-1.5,21.4-2.8c-6.5,4.6,9.2,1.8,10.1,5.6c12.2,0.8,39,1.9,50.4-3.1l-3.4,5l14.2-0.6c10.6,3-12.5,3.2-19.6,3.5
							c19.2,0.5,32.1,0.2,49.5,0.1c-5.1-1.1-2-2.1-4.5-3.6c6-2.1,14.2-0.6,20.3-1.2c1.5,1.2,0.7,2.3-4.1,2.7l11.9-0.6
							c-0.9,3.1,4.9,3.1-6.9,5.2l11-1c12.2,0.8-0.5,2.6-3.5,3.6l19.2,0.5c6.9-1.7-3.9-2.7,9.3-3.6c17.7,2.7,40.3,1.7,60.5,2.5
							l-14.2-2.9c12.1,0.8,9.7-4.2,13.4-6.3c11.2,0.5,26.3,0.2,35.8,1.5c-10.8,2.4-6.4,6,3.7,8.2c22.8,0.4,17.2-5,29.9-6.8
							c-9.9,6.2,15.9,2.1,13.6,5.4c28.9-0.2,58-2.5,87.9-2.4c-0.6-0.9-9.2-1.8-3.9-2.7c11-1,16.2,1.5,17.7,2.7
							c14.2-0.6,22.4-2.5,27.1-4.3c-6.2,0.6-6.7-0.3-5.6-2c14.2-0.6,10.3,3.6,23.7,0.7c3.5,3.3-15,1.7-13.6,4.9
							c12.5,0.2,20.4-1.2,29.5-2.8c2.1,2.1-8.4,0.5-1.5,2.2c19.4-1.5,42.7-3.7,57.3-4.8l3.9,2.7c9.3-0.2,15.5-0.8,19.8-2.1
							c5,1.1,1.1,1.8-3.7,2.1c12.5,0.2,27.8-2,34.9-2.3c-1.1,1.7-7.1,0.3-9.2,1.6c15.7,0.7,35.5-4.8,45.7-1.3
							c-1.3,0.5-2.9,0.5-4.3,0.5c23.2,0.2,43.4-1.9,68.7-2.2c23.1,3.3,7.5-4.3,30.2-3.9c0.2,7.4,31,0.4,40.6,1.8l-3.1-1.1
							c11.2-3,26.7-0.3,34.5,1.7c17,0.4,42.4,0.3,59.3-2.7l-3.4,1.6c14-2,22.8,0.4,36.8-1.6c-0.4,0.6-5.6,1.5-0.2,2
							c67.6,2.2,136.4-2.6,203.8-1.8c129,1.6,289.6,2.8,416.5-3.2C1866.8,154.3,1927,123.3,1918,110.8z"/>
						<path class="st2" d="M344.5,132c0.6,0,1.1,0.1,1.8,0.2C345.6,132,345,132,344.5,132z"/>
						<path class="st2" d="M647.3,134.6c-1.4,0-2.9,0-4.3,0.1C644.4,134.8,645.8,134.8,647.3,134.6z"/>
						<path class="st2" d="M905.8,124.2l-5.4,0.3C902.7,124.5,904.4,124.4,905.8,124.2z"/>
						<path class="st2" d="M1298.1,109.8c-2.1-2.1,8.6-5.9-0.5-7.8c-32.1-0.2-13.7,8.3-46.7,7.8l16.8,2.4
							c-0.9-3.8,10.9-5.9,23.7-6.2l3.9,2.7c-2.2,0.8-4.6,1.5-7,2.1C1293.2,111.2,1292.3,109,1298.1,109.8z"/>
						<path class="st2" d="M1287.1,110.8c0.2,0.1,0.5,0.1,0.8,0.2c0.1,0,0.3-0.1,0.4-0.1C1287.9,110.9,1287.6,110.9,1287.1,110.8z"
							/>
					</g>
				</g>
			</g>
		</g>
	</g>
	<g>
		<g>
			<g>
				<g>
					<g>
						<path class="st2" d="M28.5,271.6c-0.1,0.3-0.4,0.4-0.7,0.4c0.1,0.3,0.2,0.5,0.3,0.8L28.5,271.6z"/>
						<path class="st2" d="M2.3,197c0,0,0-0.1,0-0.1c-0.3,0.1-0.5,0.3-0.9,0.4C2,197.3,2,197.3,2.3,197z"/>
						<path class="st2" d="M8.8,215.7c-0.3,0.3-0.5,0.7-0.9,0.9C8.2,216.7,8.5,216.3,8.8,215.7z"/>
						<path class="st2" d="M30.2,261.3c-0.4,0.8-0.9,1.7-1.4,2.5C29.7,263.6,30.5,262.6,30.2,261.3z"/>
						<path class="st2" d="M10,213.2c-0.4,0.7-0.8,1.7-1.2,2.5C9.4,215,9.8,214.1,10,213.2z"/>
						<path class="st2" d="M2,161.6c-0.3,0.5-0.6,1.1-0.9,1.7c0.2,0,0.3,0.1,0.6,0.1L2,161.6z"/>
						<path class="st2" d="M68.4,892.9c-0.4-1.7-1.1-2-1.9-1.7C67.1,891.4,67.7,891.9,68.4,892.9z"/>
						<path class="st2" d="M68.6,851.9c0.2,0.3,0.4,0.6,0.6,0.9C69,852.1,68.7,851.7,68.6,851.9z"/>
						<path class="st2" d="M54.9,875.4c-0.4,0-0.7,0.2-1,0.3C54.1,875.9,54.5,875.8,54.9,875.4z"/>
						<path class="st2" d="M12.3,588.4l-0.9,1C11.9,589.2,12.2,588.9,12.3,588.4z"/>
						<path class="st2" d="M8.2,534.4c0-0.2,0-0.3,0-0.5C8.2,534.1,8.2,534.3,8.2,534.4z"/>
						<path class="st2" d="M8.2,532.8c0,0.4,0,0.7,0,1.1C8.3,533.5,8.3,533,8.2,532.8z"/>
						<path class="st2" d="M7,159.8c-1.6-1.3-2.1-4.6-4.1-4.6L2,161.6C3.4,159.3,5.6,158.2,7,159.8z"/>
						<path class="st2" d="M80.9,708.4c-0.2-2.1-0.5-3.1-0.9-3.6c0.3,1.2,0.5,2.5,0.8,3.7L80.9,708.4z"/>
						<path class="st2" d="M63.1,661c0.1,0.1,0.1,0.1,0.2,0.2c0-0.1-0.1-0.2-0.1-0.3L63.1,661z"/>
						<path class="st2" d="M82.9,712.1c0.3,0.2,0.6,0.5,1,0.6C83.8,711.9,83.4,711.9,82.9,712.1z"/>
						<path class="st2" d="M36.3,282.2c0.1,0.3,0.3,0.5,0.4,0.9C36.6,282.7,36.4,282.4,36.3,282.2z"/>
						<path class="st2" d="M60.3,664.2l2.8-3.1c-0.5-0.4-0.9-0.9-1.5-1.4C59.4,659,59.6,662.7,60.3,664.2z"/>
						<path class="st2" d="M82.9,712.1c-1-0.8-1.6-2.1-2-3.6l-1.5,1.7C79.4,714.4,81.6,712.5,82.9,712.1z"/>
						<path class="st2" d="M60,896.4c1.6-1.9,4.2,4.8,4.9,0.8l-3.6-4c1.7,0.7,3.7-1.6,5.2-2c-3.3-1.6-5.5,5.1-10.1,0.4
							c-2-1.1-1.6-4.7-1.1-6.5c-0.7,4-3.1-0.1-4.3-1.7c1.4-2.5,0.7-6.5,2.9-7.6c-0.8-0.4-1.2-2.3-0.8-3.6l1.1-0.1
							c-1-3-1.1,1-2.3,0.2c-0.4-2.1,2-5.5,1.9-9c0.1,3.5,1.7,6.4,2.9,8.9c2-6.4,5.7,1.1,8.6,2.6c-1.4-5.1-3.4-7.1-5.3-11.3
							c2.3-5.1,8.2,0.4,8.6,1.7c-1.6-4.7-5.2-9.6-6.5-12.1c4.4,3.5,5.8,2.9,9.3,6c2.6-3.7-0.6-4.5-2.2-6.3c0.4,1,0.7,2.7-0.2,3
							c0.4-4.4-6.4-3.7-9.3-6c1.8-3.3,2.7-9.5,6.7-9.1l-4.2,0c-1-3.9,2.2-2,3.6-2.6c-2.9-1.4-7.1,0.3-8.2-6.2c6.9,1,0.6-5.8,6.8-5.6
							c-0.4-3-3.9-4.4-3.2-7.6c3.5-3.5,8.4,4.8,7.4,6.7c0.2,4.4-2.9-0.6-2.8,1.2l1.9,4.2c1.3-2.3,2.8-6.9,5.7-6.3
							c-1.3-4.3-3,3.4-4.6-1.3l1.6-2.8c-1.6-4.7-4.8,1-5.6-5.1c3,4.1,0-6.6,4.6-6.2c-5.7-0.3-0.8-10.9-5.3-12.2l-1.3,3.2l2.5-0.7
							c0.1,3.5,1.7,6.4,0.7,10c-2.1-2.9-4.8,1-6.6-2.4c-3.4-6.2,3-1.7,3-2.5l-3-5l-2.4,3.4c-1-3.9-1.3-9.1-0.9-14.4
							c3.3-7.8,3.2,1,6.3-4.6c-1.2-2.5-2.6-1.9-2.2-5.5c-1.6,1.9,0.7,3.4,0.5,4.8c-3.6,1.7-1.7-6.4-5.1-6.1c1.4-1.5,2.8-1.2,4.3,0
							c-1.4-6-0.8-11.8,3.6-14l-4.4-2.6c1.5-10.3,4,7.1,6.7-1.6c0.4-3.6,0.3-7.1-1.5-8.7l-0.1,3.1c-2.4-2.4-4.1-2.2-5.6-6
							c0.4-2.7,3.3-1.2,0.9-4.5c2.5-8.2,6.7-2.5,10.7-1.2c2.3-6,8.3,3,6.5-1l-1,1.1l-5.8-6.2c-4.9,5.8,4.5,2.3-0.4,4.6l-0.4,3.5
							c-2.5-1.1-0.7-9.1-3.5-9.8c1.4-0.1,4.8,0.8,5,4.4l5.4-2.1c0.5-2.1-3.1-3.5-0.6-4.6c3.5-3.1,5.5,4.6,6.9-3.1
							c1.2-8.2-5.5-7.7-4.6-13.2c-1.2,0.6-1.1,1.9-1.3,3.7c-1.8-1.8-3.3,1.4-4.7-1.7c3.6-1.7,3.4-7.6,3.3-12c2,1.2,3.9-1.7,5.1-0.3
							c-0.5-2.3-1.1-4.4-2.7-5.3c-2.7,9.1-3-8.8-6.7-1.8c0.2-7.1,3.5-8.4,5.4-12.8c1.1,0.3,2.3,8.2,3.8,1.9
							c-3.8-7.2-5.3,1.3-9.9-4.4l-1.4,4.5c-4.7,0.6-1.1-7.9-2.2-9c1.2-2.8,1.3,3.9,4.5,1.2c1-4.2-1.9-6.3-0.1-9
							c3.1,2.6,1.9,0.9,4.7,3.9c-0.1-9.8,3.7,0.5,5.7-7c-0.6-2.4-3.3-0.9-2.6-4.7c-3.4,2.2-4.5,1.9-4.6,8.2
							c-4.9-2.2,1.2-8.2-1.8-12.5c-0.4,3.5-1,1.1-0.2,4.8c-4.1,0.5-4.8,1.9-8.6-1.5c1.1,4,5.5,5.8,4.3,11.6
							c-4.2,1.6-3.2-7.1-8.7-7.2c-2.7-2.9-0.4-9.9,1.6-13c-3.4-5.6-3.4-12.5-8.3-16.8c1.6-4-3-14.2-1.6-21.8
							c2.4-1.2,1.6-9.4,4.3-4.7c-0.8-0.7-1.2-7-3.4-5.4c0.8,0.7,0.1,1.4,0.3,2.7l-3-1.2c1.3-3.7-2.6-7.8-0.8-11.4
							c2.4-1.1,1.6,6.6,4.4,4.3c-4.5-3.4-6.4-17.3-4.5-21.7c0.6-3,4.4-3.3,4.8-4.5l-0.3-5c1.2-0.6,2.7-0.7,4.2-1.6
							c0.8-2.5-0.4-4.1-1.1-5.6c2.4-6.5,5.5-3,8,0.3l-1.3,3.7c1.7,2.7,1,6.5,4.4,4.3c-0.4-1.9-1.8-1.8-2.6-2.5l2-2.2
							c-1.5-2.2-2.3-8.2-4.9-7.5c1.9-4.4-0.4-9.5,1.8-13.3c-1.7,2.7-2.8-0.7-4.9,0.1l-0.8,4.7c-0.7-3.8-2.7-9.2-0.9-12.7
							c1.7,0.4,2.2,0.6,3.9-1.2c-2.3,2.5-3-6.6-5.9-1.1c0.9,2,1.3,3.9,1,6.5c-3.6,1.7-4-2.4-6.1-4.7c-0.8-2.9-1.9-8.5-3.2-12.4
							c0.8-2.5,4.9-3.2,2.5-7.4c-3.5,5.3-5.7-5.1-9.3-6.5c1.6-4-3-6.6-0.1-9.8c1.3,1.7,1.1,7.9,3.8,9.5c2.6,0.2,6.7-1.4,8.1,4.8
							c1.3-7.4-2.2-4.3-3.2-7.7l0.3,2.5c-1-1.2-3,1-3-1.2c1-8.7,3.7-10.2,6.9-16c-1.9,1.3-3.6-1.4-3.7-2.8c2.3-5.6,5.4,0.1,9.3-3.4
							c-2.4-2-1.7-5.8-3.5-4.5c0-2.2,1-1.1,1.7-2.7c-2.1-1.4-3.4-3.1-3.3-6.2c1.1,0.3,2.8,0.7,2.2,3.7c0.9-3.3,4.8-4.5,6.9-3.1
							l-1.5,5.4c2.6,2.5,1.1-5,3.7-4.8c0.6,2.4-1,4.2-0.3,5.7c2.8-1.5,0.1-6.2-0.2-9c0.5-4.3,3.2-2.7,4.6-2.8
							c-4.4-7.4-5,8.5-9.1,1.6c-3.2-2.6-2.7-9.2-3.3-13.8c-3.6,4-5.1-0.5-6.3-5.2c-0.1,6.2-4.2,1.6-1.8,8.9l-2.9,0.1
							c0.1-3.1,1.3-6.8,1.4-9.9c0.8,0.6,1.4-0.1,1.9,0.9l-1.3-9.3l1.9,0.9c0.3-5.7,2.5-12.7,1.5-16.1c0.3,2.7-2.6,5.1-3.4,2.2
							c-1.2-1.7-2.6-4.7-2.4-7.3c3.3-1.4,3.2-11.2,6.6-5c-1.7-8-2.3-5.1-4.3-12.7l0.9,5.1c-2.6,0.6-7.1-3.6-8.7,1.3
							c-1.7-5.8-6.4-2.1-6.9-9.8c1.6-3.1,5.3,1,6,5.3c0.2-2.2,1.7-4.2-0.1-6.4c2.2-1.6,3.8,4.1,4.7,3.9c0.2-4-1.4,0.1-2.2-3.7
							c-3-6.6,4.5-4.2,2.6-10.5c0.1,1.4-0.7,3.8-2,2.2c0.1-8.5-2.6-4.7-4-10.8c3.8-3.5,8-1.9,8.9-7.5l-0.1,3.1
							c2-2.2,2.8-4.6,2.8-6.9c-3.3-11.6-9.1-21.1-12.1-33l1,4.3c-1.3,1.4-1.6-3.6-3.1-3.5l1.7-2.7c-2.8-0.7-2.7,6-5.4,4.4
							c0.3-0.4,0.4-1.2,0.2-1.7l-0.8,2.5c0.9-5.6-4.1-10,0.4-14.2c0.5,10.8,8.1,1.7,9.5,12.3c-1.1-5.6,3-1,4.2-1.6
							c0.6-3-2.1-1.5-1.2-4.8c2,0.1,3.8,7.2,5.3,4.1c-3.1-0.4-2.5-3.3-4.6-4.8c0.8-2.5,2,0.1,3-1c-0.1-1.4-1.5-2.2-1.1-3.4l1.9,0.9
							c2.8-6.8-2.9-2.1-2.1-9.9c-2.5-0.2-2,2.2-1.5,5.4c-5.6,1.6-6.1-10.1-12.1-9.4c-0.9-7.4,2.4,2,3.9-4.3c3.8-3.4,4.1,4.6,6.8,6.2
							l2.4-6.5c4.9,2.2,3.3,6.2,7.8,7.4c0.2-4.8-1-4.3-2.7-9.2c-3.7,7.9-3.1-3.5-7.9,1.1c1.3-3.7,2.3-2.5,2.3-7.9
							c1.1,3.4,4,0.1,4.1,4.6c-0.4-7.2-1.4-5.3-1.8-12.5c-3.5-2.3-4.5,7.3-7-1.4c0-1.9,1.3-1.5,1.3-0.4c1.4-6.2-4.3,1.3-6.1-2.6
							c-0.4-2.7,0.9-3.7,1.8-2.6c-1.9-4.1-4.2-1.8-5-4.5l-0.4,1.2c-1-1.2-6,2-6.2-3.9c0-4.3,2-2.9,3.1-3c-1.2-3.3-0.2-5.9,1-8.1
							c-0.7,0.2-1.4,0-1.4-1c-1.1-5.6,2.9-3.2,3.5-5.3c1.7-8-6.4,1-6.6-8l-1.1,10.4c-1.7-0.4-4.2-0.7-4.2,1.6
							c2.6,0.2,4.7,3.9,4.3,7.4c-3,1-3.3-9.3-6.5-3.5c0.5-2.1-0.3-5,0-7.6c3.2,2.6,0.6-8.3,4.1-3.8c-0.8-11.3,1.4-13-0.9-23.4
							c1.9,0.9,6.9,7.6,5.5,13l-1.8,0.4c2.1,6.8,2-5.3,5-4c-4.8-8.4,2.3-18.5,0.6-28.8c-1.6,1.8-2.6-0.2-4.2-0.7
							c0.4,4.1,1.1,3.4-1,6.4c-2.2-0.6-1.4-3-3-4.3c-2.5-1.1,0,3.1-1.4,4.6c-1.3-3.9-1.6-3.5-3.7-5.9c2-2.2,3.1-1.9,5.3-3.5
							c0.5-9.7-3.9-8.6-3.1-16.4c-0.5,4.3,2.5-2,1.7,2.7l0.3-2.6c3.6,6.7,3.4,18.3,9.3,17.2c-0.5-5.5-3.8-9.5-3.9-16.2l1.1,0.3
							c0.2-4.8-1.4,0.1-2.5-1.1c-2-5.4,5.6-7,1.5-10.8l-0.9,5.5c-2.4-4.2-0.4,1.2-4.3,0.2c-2.9-7.5-0.9-20.3-3.8-30.9
							c-2.1,3-2.1,3.9-2.3,7.9c-5.2-1.8-4.5-3.4-9-1.5L5.3,167L0.5,167c-0.1-1.3,0.2-2.6,0.7-3.8c-3.1-0.7,0.9-7.3-2-7.7l0.4,4.1
							c-2.5,2-2.3-2.8-3.1-5.7c-3.2,2.7,0.1,9,0.4,14.8c1.8-0.4,5.4,5.4,5.8-0.3c2,0.1,3.1,3.5,3.1,5.7c-1-1.2-5.4,4.4-6.8-0.9
							c2.3,5.1,0,2.2,1.1,7.9c-1.3-0.8,0.1,9.8-4.2,9.2c1.8,1.8,6.2-0.1,6.4,6.5c2.9-1.6,3.4-8.9,6.5-4l-1.9-3.2
							c1.4-4.5,3,1.2,4.2-4.7c-0.2,1.7,1.4,5.3-0.7,6.1c6.2-1.5,3,8.8,7.6,9.1c-1.9,1.3-2.1,3-1.6,6.3c-1.7-0.5-3.3,1.3-4.5-1.2
							c0.5-2.1-0.2-3.6,1.2-5.9c-6.2,1.3-2,8.4-3.3,13.8c0.5-0.8,1.1-1,2,0.5c-0.9,3.3-2,10.6-5,8.5l0.7,16.7
							c-1.4,0.1-0.6-2.4-1.1-3.4l-0.2,9.3c-2,2.2-1.9-3.2-3.8-4.1l0.1,6.7l-1.9-0.9c1.2,1.7,1.8,9.4-1.3,11.3
							C0.5,265.1,6.8,265,4,275c-3.1-0.4-1.1-5.6-3.1-8c-1.1,1.9,1.1,7.9-1.8,8.9c1.8,7.2,7.3,6.4,10.4,9.9c0.2,5.8-2.6,0.6-3.5,0.9
							c-0.2,1.7,5.5,4.6,1.3,6.1c2.3,2.8,5,4.4,6,0.2c0,3.1,1.5,7.5,2.8,8.3c-4.6-2.5-1.8,3.5-5.6,3.9c-0.8,4.7-1.9,15.1,3,19.5
							l-5-1.3l0.5,5.5c-3,4.1-3.2-4.9-3.5-7.6c-0.5,7.4-0.2,12.4-0.1,19.1c1.1-2,2.1-0.8,3.6-1.7c2,2.3,0.5,5.5,1.1,7.9
							c-1.2,0.6-2.3,0.3-2.7-1.6l0.6,4.6C5,349.2,5,351.5,3,346.9l1,4.3c-0.8,4.7-2.6-0.2-3.6-1.4l-0.5,7.4c1.7,2.7,2.7-1.5,3.6,3.6
							c-2.8,6.8-1.7,15.6-2.6,23.4l2.9-5.5c-0.8,4.7,4.2,3.8,6.3,5.2c-0.5,4.3-0.3,10.2-1.5,13.9c-2.4-4.2-6-2.5-8.2,1.4
							c-0.4,8.8,5,6.7,6.8,11.6C0.9,407,5,417,1.6,416.1c0.2,11.2,2.4,22.5,2.3,34c0.9-0.2,1.8-3.5,2.7-1.5c1,4.3-1.6,6.3-2.8,6.8
							c0.5,5.5,2.5,8.7,4.3,10.5c-0.6-2.4,0.3-2.6,2-2.2c0.5,5.5-3.6,4-0.7,9.2c-3.3,1.4-1.7-5.8-4.9-5.3c-0.2,4.8,1.1,7.9,2.8,11.4
							c-2.1,0.8-0.5-3.2-2.2-0.6c1.5,7.5,3.6,16.5,4.7,22.2L7,502.2c0.2,3.6,0.8,6,2,7.7c-1.1,1.9-1.8,0.4-2.1-1.5
							c-0.2,4.8,2,10.8,2.2,13.5c-1.7-0.4-0.3-2.7-1.6-3.6c-0.7,6.1,4.8,13.7,1.2,17.7c-0.4-0.5-0.5-1.1-0.5-1.7
							c-0.2,9,1.8,16.8,2.1,26.6c-3.3,8.9,4.3,2.9,3.9,11.7c-7.4,0-0.5,12-1.8,15.7l1.1-1.2c3,4.3,0.3,10.3-1.8,13.4
							c-0.4,6.6-0.4,16.4,2.6,23l-1.6-1.3c2,5.4-0.4,8.8,1.6,14.2c-0.6-0.1-1.5-2.2-2-0.1c-2.3,26.1,2.5,52.8,1.6,78.9
							c-1.8,49.9-3.1,112.1,2.7,161.2C16.6,876.5,47.5,899.9,60,896.4z"/>
						<path class="st2" d="M40.6,287.4c0,0.2-0.1,0.4-0.2,0.7C40.6,287.8,40.6,287.6,40.6,287.4z"/>
						<path class="st2" d="M37.6,404.6c0-0.5,0-1.1-0.1-1.7C37.4,403.5,37.4,404,37.6,404.6z"/>
						<path class="st2" d="M47.7,504.6l-0.3-2.1C47.5,503.5,47.6,504.1,47.7,504.6z"/>
						<path class="st2" d="M61.7,656.5c2.1-0.8,5.9,3.3,7.8-0.2c0.2-12.4-8.3-5.3-7.8-18.1l-2.4,6.5c3.8-0.3,5.8,4.2,6.2,9.2
							l-2.7,1.5c-0.8-0.9-1.5-1.8-2-2.7C60.3,654.6,62.5,654.3,61.7,656.5z"/>
						<path class="st2" d="M60.7,652.3c-0.1,0.1-0.1,0.2-0.2,0.3c0,0,0.1,0.1,0.1,0.2C60.7,652.6,60.7,652.4,60.7,652.3z"/>
					</g>
				</g>
			</g>
		</g>
	</g>
	<g>
		<line class="st1" x1="0" y1="864" x2="1920" y2="864"/>
		<g>
			<g>
				<g>
					<g>
						<path class="st2" d="M1616.3,852.4c-0.8-0.1-1.1-0.4-1.1-0.7c-0.7,0.1-1.4,0.2-2.1,0.3L1616.3,852.4z"/>
						<path class="st2" d="M1808.9,826c0.1,0,0.2,0,0.3,0c-0.4-0.3-0.8-0.5-0.9-0.9C1808,825.7,1808,825.7,1808.9,826z"/>
						<path class="st2" d="M1760.4,832.5c-0.9-0.3-1.7-0.5-2.4-0.9C1758,832,1759.1,832.3,1760.4,832.5z"/>
						<path class="st2" d="M1642.8,854.1c-2.2-0.4-4.3-0.9-6.6-1.3C1636.9,853.6,1639.4,854.4,1642.8,854.1z"/>
						<path class="st2" d="M1767,833.7c-1.7-0.4-4.5-0.8-6.5-1.2C1762.4,833.1,1764.6,833.5,1767,833.7z"/>
						<path class="st2" d="M1900.4,825.6c-1.3-0.3-2.8-0.6-4.3-0.9c-0.1,0.2-0.4,0.3-0.3,0.6L1900.4,825.6z"/>
						<path class="st2" d="M11.3,894.1c4.3-0.4,5-1.1,4.4-1.9C14.9,892.8,13.6,893.4,11.3,894.1z"/>
						<path class="st2" d="M117.1,894.2c-0.8,0.2-1.6,0.4-2.3,0.6C116.5,894.6,117.6,894.3,117.1,894.2z"/>
						<path class="st2" d="M56.3,880.6c-0.1-0.4-0.4-0.7-0.8-1C55.1,879.8,55.2,880.2,56.3,880.6z"/>
						<path class="st2" d="M797.5,837.2l-2.6-0.9C795.4,836.8,796.3,837,797.5,837.2z"/>
						<path class="st2" d="M937,832.9c0.4,0,0.8,0,1.2,0C937.8,832.9,937.4,832.9,937,832.9z"/>
						<path class="st2" d="M941.1,832.9c-1,0-1.9,0-2.9,0C939.4,833,940.5,833,941.1,832.9z"/>
						<path class="st2" d="M1904.9,830.6c3.4-1.6,11.8-2.1,12-4.1l-16.4-0.9C1906.2,827.1,1909.2,829.2,1904.9,830.6z"/>
						<path class="st2" d="M488,906.1c5.3-0.2,8-0.5,9.3-0.9c-3.2,0.3-6.5,0.5-9.6,0.8L488,906.1z"/>
						<path class="st2" d="M610.2,888.2c-0.2,0.1-0.3,0.1-0.5,0.2c0.3,0,0.5-0.1,0.8-0.1L610.2,888.2z"/>
						<path class="st2" d="M478.5,908.1c-0.6,0.3-1.3,0.6-1.7,1C478.9,909,479,908.6,478.5,908.1z"/>
						<path class="st2" d="M1588.9,860.2c-0.8,0.1-1.4,0.3-2.3,0.4C1587.7,860.6,1588.4,860.4,1588.9,860.2z"/>
						<path class="st2" d="M602.1,885.4l8.1,2.8c1.1-0.5,2.2-0.9,3.7-1.5C615.4,884.5,606,884.7,602.1,885.4z"/>
						<path class="st2" d="M478.5,908.1c2.1-1,5.4-1.6,9.3-2.1l-4.4-1.5C472.6,904.7,477.4,906.8,478.5,908.1z"/>
						<path class="st2" d="M2,885.8c5,1.6-12.5,4.2-2,4.9l10.3-3.6c-1.7,1.7,4.2,3.7,5.3,5.2c4.1-3.3-13.3-5.5-1.1-10.1
							c2.8-2,12.1-1.6,16.8-1.1c-10.4-0.7,0.3-3.1,4.5-4.3c6.4,1.4,16.7,0.7,19.7,2.9c1-0.8,6-1.2,9.4-0.9l0.3,1.1
							c7.7-1-2.6-1.1-0.6-2.3c5.6-0.4,14.2,2,23.3,1.9c-9.1,0.2-16.6,1.7-23.1,3c16.5,2-2.9,5.7-6.6,8.6c13.3-1.4,18.3-3.5,29.2-5.4
							c13.2,2.3-1,8.2-4.4,8.6c12-1.6,24.7-5.3,31.1-6.5c-9,4.4-7.4,5.8-15.5,9.3c9.7,2.5,11.6-0.6,16.2-2.3
							c-2.7,0.4-6.9,0.7-7.8-0.2c11.5,0.4,9.5-6.4,15.5-9.3c8.5,1.8,24.7,2.7,23.6,6.7l-0.1-4.2c9.9-1,5.2,2.2,6.7,3.6
							c3.7-2.9-0.9-7.1,15.8-8.2c-2.6,6.9,14.9,0.6,14.5,6.8c7.8-0.4,11.4-3.9,19.6-3.2c9,3.5-12.3,8.4-17.2,7.4
							c-11.3,0.2,1.5-2.9-3-2.8l-10.8,1.9c6,1.3,17.9,2.8,16.4,5.7c11-1.3-8.9-3,3.2-4.6l7.3,1.6c12-1.6-2.5-4.8,13.2-5.6
							c-10.5,3,17.1,0,16.1,4.5c0.6-5.7,28.2-0.8,31.4-5.4l-8.3-1.3l1.9,2.5c-9.1,0.2-16.6,1.7-25.9,0.7c7.4-2.1-2.5-4.8,6-6.6
							c16.1-3.4,4.3,3,6.6,3l12.8-3.1l-8.7-2.4c10-1,23.5-1.3,37.3-1c20.3,3.3-2.5,3.2,12.1,6.3c6.5-1.3,4.9-2.7,14.1-2.2
							c-5-1.6-8.9,0.7-12.3,0.5c-4.5-3.6,16.6-1.7,15.6-5.1c3.8,1.3,3.1,2.8,0.1,4.3c15.5-1.4,30.5-0.8,36.3,3.6l6.7-4.4
							c26.6,1.5-18.2,4,4.2,6.7c9.2,0.4,18.3,0.2,22.3-1.5l-8-0.1c6.1-2.4,5.6-4.1,15.4-5.7c7,0.4,3.2,3.3,11.6,0.9
							c21.2,2.5,6.5,6.7,3.1,10.7c15.5,2.3-7.8,8.3,2.6,6.5l-2.8-1l16-5.8c-15-4.8-6,4.5-11.9-0.4l-9-0.4c2.8-2.5,23.5-0.7,25.4-3.5
							c0.2,1.4-2.1,4.8-11.4,5l5.6,5.4c5.4,0.5,9-3.1,11.9-0.6c8,3.5-11.8,5.5,8,6.9c21.1,1.2,19.8-5.5,34.2-4.6
							c-1.5-1.2-5-1.1-9.5-1.3c4.7-1.8-3.5-3.3,4.3-4.7c4.5,3.6,19.6,3.4,31.1,3.3c-3,2,4.4,3.9,0.8,5.1c5.9-0.5,11.3-1.1,13.8-2.7
							c-23.5-2.7,22.8-3.1,4.5-6.7c18.3,0.2,21.8,3.5,33.2,5.4c-0.8,1.1-21.1,2.3-4.8,3.8c18.7-3.8-3.3-5.3,11.2-9.9l-11.7-1.3
							c-1.5-4.6,20.3-1.2,23.4-2.2c7.2,1.2-10.1,1.3-3,4.5c10.8,1,16.3-1.9,23.2-0.2c-6.7,3.2-2.4,1.9-10.1,4.7
							c25.4-0.1-1.3,3.7,18.1,5.6c6.2-0.6,2.2-3.3,12.2-2.7c-5.8-3.4-5.1-4.5-21.1-4.6c5.6-4.9,21.1,1.2,32.3-1.8
							c-9-0.4-2.8-1-12.5-0.2c-1.3-4.1-4.9-4.7,3.9-8.6c-10.4,1.1-14.9,5.5-29.9,4.4c-4.1-4.2,18.3-3.3,18.5-8.7
							c7.4-2.8,25.5-0.5,33.7,1.5c14.5-3.4,32.3-3.5,43.3-8.4c10.5,1.6,36.6-3.1,56.4-1.7c3,2.4,24.3,1.6,12.1,4.2
							c1.7-0.8,18.1-1.3,13.8-3.4c-1.7,0.8-3.5,0.1-7.1,0.3l3.2-3c9.5,1.3,20.2-2.6,29.3-0.8c3,2.4-17.2,1.6-11,4.4
							c8.8-4.5,44.6-6.5,56-4.6c7.7,0.6,8.6,4.4,11.8,4.8l12.9-0.3c1.5,1.2,1.7,2.7,4.1,4.2c6.3,0.8,10.6-0.4,14.6-1.1
							c16.8,2.4,7.8,5.5-0.8,8l-9.5-1.3c-6.9,1.7-16.8,1-11,4.4c4.8-0.4,4.6-1.8,6.3-2.6l5.6,2c5.6-1.5,21.1-2.3,19.4-4.9
							c11.4,1.9,24.4-0.4,34.5,1.7c-6.9-1.7,1.9-2.8-0.2-4.9l-12.1-0.8c9.7-0.8,23.7-2.7,32.8-0.9c-1.1,1.7-1.5,2.2,3.2,3.9
							c-6.5-2.3,17-3,2.8-5.9c-5.2,0.9-10.1,1.3-16.8,1c-4.4-3.6,6.2-4,12.2-6.1c7.5-0.8,22-2,32.1-3.3c6.3,0.8,8.2,4.9,19,2.5
							c-13.8-3.4,13.1-5.8,16.6-9.3c10.5,1.6,17-3,25.4-0.1c-4.3,1.3-20.3,1.2-24.4,3.9c-0.6,2.6,3.5,6.7-12.3,8.1
							c19.1,1.3,11.2-2.2,20-3.2l-6.5,0.4c3-1-2.6-3,3.2-3c22.4,0.9,26.3,3.7,41.4,6.9c-3.4-1.9,3.5-3.6,7.1-3.7
							c14.5,2.3-0.2,5.4,8.7,9.3c5.1-2.4,15-1.7,11.6-3.5c5.8,0,2.8,1,6.9,1.7c3.7-2.1,8-3.4,16-3.3c-0.7,1.1-1.8,2.8-9.5,2.2
							c8.6,0.9,11.7,4.8,8,6.9l-14-1.4c-6.4,2.6,13,1.1,12.5,3.7c-6.2,0.6-10.8-1-14.8-0.3c3.9,2.7,16,0.1,23.1-0.2
							c11.2,0.5,7.1,3.2,7.3,4.6c19-4.4-22-4.9-4.3-9.1c6.7-3.2,23.7-2.7,35.6-3.4c-10.3-3.6,1.1-5.1,13.5-6.3
							c-16.1-0.1-4.1-4.2-23-1.8l-0.4-2.9c8,0,17.5,1.3,25.6,1.4c-1.7,0.8,0.2,1.4-2.4,1.9l23.9-1.3l-2.4,1.9
							c14.7,0.3,32.8,2.5,41.6,1.4c-7.1,0.3-13.2-2.6-5.8-3.4c4.3-1.3,12.1-2.6,18.9-2.4c3.5,3.3,28.9,3.2,12.9,6.6
							c20.7-1.7,13.1-2.3,32.9-4.4l-13.3,0.9c-1.7-2.6,9.3-7.1-3.4-8.7c14.9-1.7,5.4-6.4,25.4-7c8.1,1.6-2.4,5.4-13.6,6
							c5.6,0.2,10.8,1.7,16.6-0.2c4.3,2.2-10.6,3.9-10.1,4.7c10.3,0.1-0.2-1.4,9.5-2.2c17-3,10.8,4.5,27.1,2.6
							c-3.6,0.1-9.9-0.7-5.6-2c21.8,0.1,12.1-2.7,28-4c9,3.8,5,8,19.4,8.8l-8,0c5.6,2,11.9,2.8,17.7,2.7
							c29.9-3.3,54.5-9.2,85.3-12.2l-11,1c-3.7-1.3,9.2-1.6,9-3.1l6.9,1.7c1.9-2.8-15.5-2.7-11.4-5.4c0.9,0.3,3.2,0.4,4.5,0.2
							l-6.4-0.8c14.4,0.9,25.8-4.1,36.6,0.4c-28,0.6-4.3,8.1-31.7,9.6c14.5-1.1,2.6,3,4.1,4.2c7.7,0.6,3.8-2.1,12.3-1.2
							c-0.2,2-18.7,3.8-10.5,5.3c0.9-3.1,8.6-2.5,12.3-4.6c6.3,0.8-0.2,2,2.6,3c3.5-0.1,5.6-1.5,8.8-1.1l-2.4,1.9
							c17.7,2.7,5.4-2.9,25.5-2.1c0.6-2.5-5.6-2-14-1.4c-4.3-5.6,25.9-6.1,24.3-12.2c19-0.9-5,2.4,11.2,3.9
							c8.9,3.8-11.9,4.1-16.1,6.8l16.8,2.4c-5.6,4.9-16.1,3.3-19.1,7.8c12.5,0.2,11-1,23.7-2.7c-20.5-3.7,8.9-3.1-2.8-7.8
							c9.5,1.3,6.5,2.3,20.3,2.3c-8.8,1.1-0.4,4-11.9,4.1c18.7-0.4,13.6-1.4,32.3-1.8c5.8-3.5-18.8-4.5,3.6-7c4.9,0,3.9,1.3,1.1,1.3
							c16,1.4-3.3-4.3,6.8-6.1c7-0.4,9.5,0.9,6.6,1.8c10.5-1.9,4.7-4.2,11.7-5l-3.2-0.4c3-1-5.2-5.9,9.9-6.2c11,0,7.6,2,7.8,3.1
							c8.6-1.2,15.2-0.2,21,1c-0.6-0.7,0.1-1.4,2.7-1.4c14.6-1.1,8.4,2.9,13.8,3.4c20.7,1.7-2.6-6.4,20.5-6.6l-26.9-1.1
							c1.1-1.7,1.7-4.2-4.1-4.2c-0.5,2.6-10.1,4.7-19.1,4.4c-2.6-3,24.1-3.3,9-6.5c5.4,0.5,12.9-0.3,19.6,0
							c-6.7,3.2,21.5,0.6,9.9,4.1c29.3-0.8,33.6,1.4,60.5-0.9c-2.4,1.9-19.6,6.9-33.6,5.5l-1.1-1.8c-17.5,2.1,13.7,2,10.5,5
							c21.6-4.8,47.9,2.3,74.4,0.5c-4.7-1.6,0.6-2.6,1.7-4.2c-10.6,0.4-8.8,1.1-16.6-1c1.5-2.2,7.8-1.4,11.2-3c2.8-2.5-8,0-11.8-1.3
							c10.1-1.3,9.2-1.6,15.1-3.7c5.6,2,4.8,3.1,9.1,5.3c25,0.5,22.2-3.9,42.4-3.1c-11.2-0.5,5.2,2.5-6.9,1.7l6.7,0.3
							c-17.4,3.6-47.2,3.5-44.3,9.3c14.2-0.6,24.5-3.9,41.8-4l-0.7,1.1c12.5,0.2-0.2-1.4,2.8-2.5c14-2,18.1,5.6,27.8,1.5l-14.3-0.9
							c10.8-2.4-3.2-0.4-0.6-4.3c19.2-2.9,52.5-1,79.7-3.8c-7.8-2.1-10.1-2.1-20.3-2.3c4.6-5.3,8.8-4.5,3.8-9l-12.5-0.2l-0.2-4.9
							c3.4-0.1,6.8,0.2,9.8,0.6c1.7-3.1,19,0.9,19.8-2l-10.6,0.4c-5.2-2.5,7.3-2.3,14.8-3.1c-7.1-3.2-23.2,0.2-38.3,0.4
							c1.1,1.8-14,5.4,0.7,5.8c-0.2,2-9,3.1-14.8,3.1c3-1-11.4-5.3,2.3-6.8c-13.1,2.3-5.8,0-20.3,1.2c2-1.3-25.4,0.1-23.7-4.1
							c-4.6,1.8,0.2,6.2-16.6,6.4c4.1,2.9,22.9,3.3,10.3,6.5l8.2-2c11.8,1.3-3.2,3,12.1,4.2c-4.5-0.2-13.6,1.4-15.7-0.7
							c3.9,6.2-22.8,3.1-23.5,7.6c-3.4-1.9-7.8-2-16.3-1.5c1.2-1.7-3.5-3.3,3-4.5c5.4,0.5,9.3-0.2,15.3,1.2
							c-3.3-6.2-21.8-1.9-35.8-3.2c2,0.5,2.5,1.1-1.4,2c-8.6-0.9-27.4-2-22-4.9l-43.1,0.8c-0.2-1.4,6.1-0.6,8.8-1.1l-24.1-0.1
							c-5.6-2,8.2-2,10.6-3.9l-17.4,0.1l2.4-1.9c-4.3,1.3-24.3,1.9-29.1-1.2c-19,0.9-18.7,7.3-44.4,4.5c0.9-3.1,14.6-1.1,20.5-3.2
							c-5-1.1-20.3,1.2-22.9-1.8c-18.5,1.8-16.4,7.3-25.4,10.4c-15.1,0.2-1.7-2.6-2.3-3.5c-4.5-0.2-11.8,5.5-15.8,1.3
							c-7.3,2.3-11.4,5-0.6,6c-8,0-19.4,1.5-21.4,2.8c6.5-4.6-9.2-1.8-10.1-5.6c-12.2-0.8-39-1.9-50.4,3.1l3.4-5l-14.2,0.6
							c-10.6-3,12.5-3.2,19.6-3.5c-19.2-0.5-32.1-0.2-49.5-0.1c5.1,1.1,2,2.1,4.5,3.6c-6,2.1-14.2,0.6-20.3,1.2
							c-1.5-1.2-0.7-2.3,4.1-2.7l-11.9,0.6c0.9-3.1-4.9-3.1,6.9-5.2l-11,1c-12.2-0.8,0.5-2.6,3.5-3.6l-19.2-0.5
							c-6.9,1.7,3.9,2.7-9.3,3.6c-17.7-2.7-40.3-1.7-60.5-2.5l14.2,2.9c-12.1-0.8-9.7,4.2-13.4,6.3c-11.2-0.5-26.3-0.2-35.8-1.5
							c10.8-2.4,6.4-6-3.7-8.2c-22.8-0.4-17.2,5-29.9,6.8c9.9-6.2-15.9-2.1-13.6-5.4c-28.9,0.2-58,2.5-87.9,2.4
							c0.6,0.9,9.2,1.8,3.9,2.7c-11,1-16.2-1.5-17.7-2.7c-14.2,0.6-22.4,2.5-27.1,4.3c6.2-0.6,6.7,0.3,5.6,2
							c-14.2,0.6-10.3-3.6-23.7-0.7c-3.5-3.3,15-1.7,13.6-4.9c-12.5-0.2-20.4,1.2-29.5,2.8c-2.1-2.1,8.4-0.5,1.5-2.2
							c-19.4,1.5-42.7,3.7-57.3,4.8l-3.9-2.7c-9.3,0.2-15.5,0.8-19.8,2.1c-5-1.1-1.1-1.8,3.7-2.1c-12.5-0.2-27.8,2-34.9,2.3
							c1.1-1.7,7.1-0.3,9.2-1.6c-15.7-0.7-35.5,4.8-45.7,1.3c1.3-0.5,2.9-0.5,4.3-0.5c-23.2-0.2-43.4,1.9-68.7,2.2
							c-23.1-3.3-7.5,4.3-30.2,3.9c-0.2-7.4-31-0.4-40.6-1.8l3.1,1.1c-11.2,3-26.7,0.3-34.5-1.7c-17-0.4-42.4-0.3-59.3,2.7l3.4-1.6
							c-14,2-22.8-0.4-36.8,1.6c0.4-0.6,5.6-1.5,0.2-2c-67.6-2.2-136.4,2.6-203.8,1.8c-129-1.6-289.6-2.8-416.5,3.2
							C53.2,842.3-7,873.2,2,885.8z"/>
						<path class="st2" d="M1575.5,864.6c-0.6,0-1.1-0.1-1.8-0.2C1574.4,864.5,1575,864.6,1575.5,864.6z"/>
						<path class="st2" d="M1272.7,861.9c1.4,0,2.9,0,4.3-0.1C1275.6,861.8,1274.2,861.8,1272.7,861.9z"/>
						<path class="st2" d="M1014.2,872.3l5.4-0.3C1017.3,872.1,1015.6,872.2,1014.2,872.3z"/>
						<path class="st2" d="M621.9,886.8c2.1,2.1-8.6,5.9,0.5,7.8c32.1,0.2,13.7-8.3,46.7-7.8l-16.8-2.4c0.9,3.8-10.9,5.9-23.7,6.2
							l-3.9-2.7c2.2-0.8,4.6-1.5,7-2.1C626.8,885.3,627.7,887.5,621.9,886.8z"/>
						<path class="st2" d="M632.9,885.8c-0.2-0.1-0.5-0.1-0.8-0.2c-0.1,0-0.3,0.1-0.4,0.1C632.1,885.7,632.4,885.7,632.9,885.8z"/>
					</g>
				</g>
			</g>
		</g>
	</g>
	<g>
		<g>
			<g>
				<g>
					<g>
						<path class="st2" d="M1887.7,219.3c-0.1,0.3-0.4,0.4-0.7,0.4c0.1,0.3,0.2,0.5,0.3,0.8L1887.7,219.3z"/>
						<path class="st2" d="M1861.1,144.8c0,0,0-0.1,0-0.1c-0.3,0.1-0.5,0.3-0.9,0.4C1860.8,145.2,1860.8,145.2,1861.1,144.8z"/>
						<path class="st2" d="M1867.7,163.6c-0.3,0.3-0.5,0.7-0.9,0.9C1867.1,164.5,1867.4,164.1,1867.7,163.6z"/>
						<path class="st2" d="M1889.4,209c-0.4,0.8-0.9,1.7-1.3,2.6C1888.9,211.3,1889.7,210.3,1889.4,209z"/>
						<path class="st2" d="M1868.8,161c-0.4,0.7-0.8,1.7-1.2,2.5C1868.3,162.8,1868.6,161.9,1868.8,161z"/>
						<path class="st2" d="M1860.5,109.4c-0.3,0.5-0.6,1.1-0.9,1.7c0.2,0,0.3,0.1,0.6,0.1L1860.5,109.4z"/>
						<path class="st2" d="M1931.6,840.3c-0.4-1.7-1.1-1.9-1.9-1.7C1930.3,838.9,1930.9,839.4,1931.6,840.3z"/>
						<path class="st2" d="M1931.5,799.3c0.2,0.3,0.4,0.6,0.6,0.9C1931.9,799.6,1931.6,799.1,1931.5,799.3z"/>
						<path class="st2" d="M1917.9,822.9c-0.4,0.1-0.7,0.2-1,0.3C1917.2,823.4,1917.6,823.3,1917.9,822.9z"/>
						<path class="st2" d="M1873.6,536.2l-0.9,1C1873.2,537,1873.4,536.7,1873.6,536.2z"/>
						<path class="st2" d="M1869.1,482.2c0-0.2,0-0.3,0-0.5C1869.1,481.9,1869.1,482.1,1869.1,482.2z"/>
						<path class="st2" d="M1869.1,480.6c0,0.4,0,0.7,0,1.1C1869.2,481.3,1869.2,480.9,1869.1,480.6z"/>
						<path class="st2" d="M1865.5,107.7c-1.6-1.3-2.1-4.6-4.1-4.6l-0.9,6.4C1862,107.2,1864.1,106,1865.5,107.7z"/>
						<path class="st2" d="M1942.9,655.7c-0.2-2.1-0.5-3.1-0.9-3.6c0.3,1.2,0.5,2.5,0.8,3.7L1942.9,655.7z"/>
						<path class="st2" d="M1924.8,608.5c0.1,0.1,0.1,0.1,0.2,0.2c0-0.1-0.1-0.2-0.1-0.3L1924.8,608.5z"/>
						<path class="st2" d="M1944.9,659.4c0.3,0.2,0.6,0.5,1,0.6C1945.8,659.3,1945.4,659.2,1944.9,659.4z"/>
						<path class="st2" d="M1895.6,229.8c0.1,0.3,0.3,0.5,0.4,0.9C1895.9,230.3,1895.7,230.1,1895.6,229.8z"/>
						<path class="st2" d="M1922,611.7l2.8-3.2c-0.5-0.4-0.9-0.8-1.5-1.4C1921.1,606.5,1921.3,610.1,1922,611.7z"/>
						<path class="st2" d="M1944.9,659.4c-1-0.8-1.7-2.1-2.1-3.6l-1.5,1.7C1941.5,661.7,1943.6,659.8,1944.9,659.4z"/>
						<path class="st2" d="M1923.2,843.9c1.6-1.9,4.2,4.8,4.9,0.8l-3.6-4c1.7,0.7,3.7-1.6,5.2-2.1c-3.3-1.6-5.5,5.1-10.1,0.5
							c-2-1.1-1.6-4.7-1.2-6.5c-0.6,4-3.1-0.1-4.3-1.7c1.4-2.5,0.7-6.5,2.9-7.6c-0.8-0.4-1.2-2.3-0.9-3.6l1.1-0.1
							c-1-3-1.1,1-2.3,0.3c-0.4-2.1,2-5.5,1.8-9c0.2,3.5,1.7,6.4,3,8.9c1.9-6.4,5.7,1.1,8.6,2.5c-1.4-5.1-3.5-7.1-5.4-11.3
							c2.3-5.1,8.2,0.4,8.6,1.7c-1.7-4.7-5.3-9.5-6.6-12c4.4,3.5,5.8,2.9,9.4,6c2.5-3.7-0.6-4.5-2.3-6.3c0.4,1,0.7,2.7-0.2,3
							c0.3-4.4-6.4-3.7-9.4-6c1.8-3.3,2.6-9.6,6.6-9.1l-4.2,0.1c-1-3.8,2.2-2,3.6-2.6c-2.9-1.4-7.1,0.4-8.2-6.1
							c6.9,1,0.6-5.8,6.8-5.6c-0.4-3-3.9-4.4-3.2-7.6c3.5-3.5,8.5,4.7,7.4,6.6c0.2,4.4-2.9-0.6-2.8,1.2l1.9,4.2
							c1.3-2.3,2.8-6.9,5.6-6.4c-1.3-4.3-2.9,3.4-4.6-1.2l1.6-2.8c-1.6-4.7-4.8,1-5.6-5.1c3,4.1,0-6.6,4.5-6.2
							c-5.7-0.2-0.8-10.9-5.4-12.1l-1.3,3.2l2.5-0.7c0.2,3.5,1.7,6.4,0.8,10c-2.1-2.8-4.8,1-6.6-2.3c-3.4-6.2,3-1.7,3-2.5l-3.1-4.9
							l-2.4,3.4c-1.1-3.8-1.3-9.1-1-14.4c3.3-7.9,3.2,1,6.3-4.7c-1.3-2.5-2.7-1.9-2.3-5.5c-1.6,1.9,0.7,3.4,0.5,4.8
							c-3.6,1.7-1.7-6.4-5.1-6c1.3-1.5,2.8-1.2,4.3,0c-1.4-6-0.9-11.8,3.5-14.1l-4.4-2.6c1.5-10.3,4,7,6.7-1.6
							c0.4-3.6,0.2-7.1-1.6-8.6l-0.1,3.1c-2.4-2.4-4.1-2.2-5.7-6c0.4-2.7,3.3-1.3,0.9-4.5c2.4-8.2,6.7-2.5,10.7-1.2
							c2.3-6,8.3,3,6.5-1l-1,1.1l-5.8-6.2c-4.8,5.8,4.5,2.3-0.3,4.6l-0.4,3.5c-2.5-1.1-0.8-9.1-3.6-9.8c1.4-0.1,4.8,0.8,5,4.4
							l5.4-2.2c0.5-2.1-3.1-3.5-0.7-4.6c3.5-3.1,5.5,4.5,6.9-3.1c1.1-8.2-5.5-7.7-4.6-13.2c-1.2,0.6-1.1,2-1.2,3.7
							c-1.8-1.8-3.3,1.4-4.7-1.7c3.6-1.7,3.4-7.6,3.3-12.1c2,1.2,3.9-1.7,5.1-0.3c-0.5-2.3-1.1-4.4-2.8-5.3
							c-2.7,9.1-3.1-8.8-6.7-1.7c0.2-7.1,3.5-8.5,5.3-12.9c1.1,0.3,2.3,8.2,3.8,1.9c-3.8-7.2-5.3,1.3-9.9-4.3l-1.3,4.5
							c-4.6,0.6-1.2-7.9-2.2-9c1.2-2.8,1.3,3.9,4.5,1.2c1-4.2-1.9-6.3-0.2-9c3.2,2.6,1.9,0.9,4.8,3.9c-0.1-9.8,3.7,0.5,5.6-7
							c-0.6-2.4-3.4-0.9-2.7-4.7c-3.4,2.3-4.5,2-4.6,8.2c-4.9-2.2,1.1-8.2-1.9-12.5c-0.4,3.5-1,1.1-0.2,4.8
							c-4.1,0.5-4.7,1.9-8.6-1.5c1.1,4,5.6,5.8,4.4,11.5c-4.2,1.6-3.3-7.1-8.7-7.1c-2.8-2.9-0.5-9.9,1.5-13.1
							c-3.4-5.6-3.5-12.5-8.4-16.7c1.6-4.1-3.1-14.2-1.7-21.8c2.4-1.2,1.5-9.4,4.2-4.7c-0.8-0.7-1.3-7-3.5-5.3
							c0.8,0.6,0.2,1.4,0.3,2.7l-3-1.2c1.2-3.7-2.6-7.8-0.8-11.3c2.4-1.2,1.6,6.6,4.4,4.2c-4.5-3.4-6.5-17.2-4.6-21.7
							c0.6-3,4.4-3.3,4.8-4.6l-0.3-5c1.2-0.6,2.7-0.7,4.2-1.6c0.8-2.5-0.4-4.1-1.1-5.6c2.4-6.5,5.5-3,8,0.3l-1.2,3.7
							c1.7,2.7,1,6.5,4.4,4.2c-0.4-1.9-1.8-1.8-2.6-2.4l1.9-2.2c-1.5-2.2-2.3-8.2-5-7.5c1.9-4.4-0.5-9.4,1.7-13.4
							c-1.7,2.7-2.8-0.7-4.9,0.1l-0.8,4.7c-0.8-3.8-2.8-9.2-1-12.7c1.7,0.4,2.2,0.6,3.9-1.2c-2.3,2.5-3-6.6-5.9-1.1
							c0.9,2,1.3,3.9,1.1,6.5c-3.6,1.7-4.1-2.4-6.1-4.7c-0.8-2.9-2-8.5-3.3-12.4c0.8-2.5,4.9-3.2,2.5-7.4c-3.4,5.4-5.8-5-9.4-6.4
							c1.6-4.1-3-6.6-0.1-9.8c1.3,1.7,1.2,7.9,3.9,9.4c2.6,0.2,6.7-1.4,8.1,4.7c1.3-7.4-2.2-4.3-3.3-7.7l0.4,2.5c-1-1.1-3,1-3-1.2
							c0.9-8.7,3.6-10.2,6.8-16.1c-1.9,1.3-3.6-1.4-3.7-2.7c2.3-5.6,5.4,0.1,9.2-3.4c-2.4-2-1.7-5.8-3.6-4.5c-0.1-2.2,1-1.1,1.7-2.7
							c-2.1-1.4-3.4-3.1-3.4-6.2c1.1,0.3,2.8,0.7,2.2,3.7c0.9-3.3,4.8-4.6,6.9-3.1l-1.4,5.4c2.6,2.5,1.1-5.1,3.7-4.9
							c0.6,2.4-1,4.2-0.3,5.7c2.7-1.5,0.1-6.2-0.2-9c0.5-4.3,3.2-2.8,4.6-2.8c-4.4-7.4-4.9,8.5-9.1,1.7c-3.2-2.6-2.8-9.2-3.4-13.8
							c-3.6,4-5.1-0.4-6.3-5.2c-0.1,6.2-4.2,1.6-1.8,8.9l-2.9,0.2c0-3.1,1.3-6.8,1.3-9.9c0.8,0.6,1.4-0.1,1.9,0.9l-1.3-9.3l1.9,0.9
							c0.3-5.7,2.5-12.7,1.4-16.1c0.3,2.7-2.5,5.1-3.4,2.3c-1.3-1.7-2.7-4.7-2.4-7.3c3.3-1.4,3.2-11.2,6.5-5c-1.7-8-2.3-5-4.4-12.7
							l0.9,5.1c-2.6,0.7-7.1-3.6-8.7,1.3c-1.7-5.8-6.4-2.1-7-9.8c1.6-3.1,5.4,0.9,6,5.3c0.2-2.2,1.6-4.2-0.2-6.4
							c2.2-1.7,3.9,4.1,4.8,3.9c0.1-4-1.4,0.1-2.2-3.7c-3-6.6,4.4-4.2,2.5-10.5c0.1,1.4-0.7,3.8-2,2.2c0-8.5-2.7-4.7-4-10.8
							c3.8-3.5,8-2,8.8-7.5l0,3.1c1.9-2.2,2.8-4.6,2.7-6.9c-3.4-11.5-9.3-21.1-12.3-33l1,4.3c-1.3,1.4-1.6-3.5-3.1-3.5l1.7-2.7
							c-2.8-0.7-2.6,6-5.3,4.4c0.3-0.4,0.4-1.2,0.2-1.7l-0.8,2.5c0.9-5.6-4.1-10,0.3-14.2c0.6,10.8,8.1,1.6,9.6,12.2
							c-1.1-5.6,3-1,4.2-1.6c0.6-3-2.1-1.4-1.2-4.8c2,0.1,3.8,7.2,5.3,4c-3.1-0.4-2.5-3.3-4.7-4.7c0.8-2.5,2,0.1,3-1
							c-0.1-1.4-1.5-2.2-1.1-3.4l1.9,0.9c2.7-6.9-2.9-2.1-2.1-9.9c-2.6-0.2-1.9,2.2-1.4,5.4c-5.6,1.7-6.1-10-12.2-9.4
							c-1-7.4,2.4,1.9,3.9-4.3c3.8-3.5,4.1,4.6,6.8,6.2l2.4-6.5c4.9,2.2,3.4,6.2,7.8,7.3c0.2-4.8-1-4.3-2.8-9.2
							c-3.7,8-3.1-3.5-7.8,1.1c1.2-3.7,2.3-2.5,2.2-7.9c1.1,3.4,4,0.1,4.1,4.6c-0.4-7.2-1.5-5.3-1.9-12.5c-3.5-2.2-4.5,7.3-7-1.4
							c0-1.9,1.3-1.5,1.3-0.4c1.3-6.2-4.3,1.3-6.1-2.6c-0.4-2.7,0.9-3.7,1.8-2.6c-1.9-4.1-4.3-1.8-5-4.5l-0.4,1.2
							c-1-1.2-5.9,2-6.2-3.8c0-4.3,1.9-2.9,3.1-3c-1.2-3.3-0.2-5.9,1-8.1c-0.7,0.2-1.4,0-1.4-1c-1.1-5.6,2.9-3.3,3.4-5.3
							c1.7-8-6.4,1-6.6-7.9l-1.1,10.4c-1.7-0.4-4.2-0.6-4.2,1.6c2.6,0.2,4.8,3.9,4.4,7.4c-3,1-3.3-9.3-6.5-3.5
							c0.5-2.1-0.3-5-0.1-7.6c3.2,2.6,0.6-8.3,4.1-3.8c-0.8-11.3,1.4-13-1-23.4c1.9,0.9,7,7.6,5.5,13l-1.8,0.4c2.2,6.8,2-5.3,5-4.1
							c-4.9-8.4,2.2-18.6,0.4-28.8c-1.6,1.8-2.6-0.2-4.2-0.6c0.4,4.1,1.1,3.4-1,6.4c-2.2-0.6-1.4-3-3-4.3c-2.5-1.1,0,3.1-1.3,4.6
							c-1.3-3.9-1.6-3.5-3.7-5.9c1.9-2.2,3.1-1.9,5.2-3.6c0.4-9.7-4-8.6-3.2-16.4c-0.5,4.3,2.5-2,1.7,2.7l0.3-2.6
							c3.6,6.7,3.5,18.3,9.4,17.1c-0.6-5.5-3.9-9.5-4-16.2l1.1,0.3c0.2-4.8-1.4,0.1-2.5-1.1c-2-5.4,5.6-7,1.4-10.8l-0.9,5.6
							c-2.4-4.2-0.4,1.2-4.3,0.2c-3-7.4-1-20.3-4-30.8c-2,3-2.1,3.9-2.3,7.9c-5.3-1.8-4.5-3.4-9-1.4l-0.2,4.8l-4.9,0.1
							c-0.1-1.3,0.2-2.6,0.6-3.8c-3.1-0.7,0.9-7.3-2-7.7l0.4,4.1c-2.5,2-2.3-2.8-3.1-5.7c-3.2,2.8,0.2,9,0.5,14.8
							c1.8-0.4,5.5,5.4,5.8-0.3c2,0.1,3.1,3.5,3.1,5.7c-1-1.2-5.3,4.4-6.8-0.9c2.3,5,0.1,2.2,1.2,7.9c-1.4-0.8,0.1,9.8-4.1,9.2
							c1.8,1.8,6.2-0.1,6.5,6.4c2.9-1.6,3.3-8.9,6.5-4l-2-3.2c1.3-4.6,3,1.2,4.2-4.7c-0.2,1.7,1.5,5.3-0.6,6.1
							c6.2-1.5,3.1,8.8,7.7,9.1c-1.8,1.3-2,3-1.5,6.3c-1.7-0.4-3.3,1.4-4.5-1.2c0.5-2.1-0.2-3.6,1.2-5.9c-6.1,1.3-1.9,8.4-3.2,13.9
							c0.5-0.8,1.1-1,2,0.5c-0.9,3.3-2,10.6-4.9,8.5l0.8,16.7c-1.4,0.1-0.6-2.4-1.1-3.4l-0.1,9.3c-1.9,2.2-2-3.2-3.9-4.1l0.2,6.7
							l-1.9-0.9c1.3,1.6,1.9,9.4-1.2,11.3c1,7.4,7.3,7.2,4.5,17.2c-3.1-0.4-1.1-5.6-3.2-7.9c-1.1,1.9,1.2,7.9-1.8,8.9
							c1.8,7.1,7.4,6.3,10.4,9.8c0.3,5.8-2.6,0.7-3.5,0.9c-0.2,1.7,5.6,4.5,1.4,6.1c2.3,2.8,5,4.4,6,0.2c0,3.1,1.5,7.5,2.9,8.3
							c-4.6-2.5-1.8,3.6-5.6,3.9c-0.8,4.7-1.9,15.1,3.1,19.5l-5-1.3l0.6,5.5c-3,4.1-3.2-4.8-3.5-7.6c-0.5,7.4-0.2,12.4,0,19.1
							c1.1-2,2.1-0.8,3.6-1.7c2.1,2.3,0.6,5.5,1.2,7.9c-1.2,0.6-2.3,0.3-2.7-1.6l0.7,4.6c-3.1-0.4-3.1,1.9-5.2-2.7l1,4.3
							c-0.8,4.7-2.6-0.2-3.6-1.4l-0.5,7.4c1.7,2.7,2.7-1.5,3.6,3.6c-2.7,6.9-1.6,15.6-2.4,23.4l2.9-5.5c-0.8,4.7,4.2,3.7,6.3,5.2
							c-0.5,4.3-0.2,10.2-1.4,13.9c-2.4-4.2-6.1-2.4-8.2,1.5c-0.3,8.8,5,6.6,6.8,11.5c-6.2-3.8-2.1,6.2-5.4,5.3
							c0.3,11.2,2.5,22.4,2.5,34c0.9-0.2,1.8-3.5,2.7-1.5c1,4.2-1.5,6.3-2.7,6.9c0.6,5.5,2.5,8.6,4.4,10.5c-0.6-2.4,0.3-2.6,1.9-2.2
							c0.6,5.5-3.6,4-0.7,9.2c-3.3,1.4-1.7-5.8-4.9-5.3c-0.2,4.8,1.2,7.9,2.8,11.4c-2.1,0.8-0.5-3.2-2.2-0.6
							c1.5,7.5,3.7,16.5,4.9,22.2l-2.7,1.5c0.2,3.6,0.8,6,2.1,7.6c-1.1,2-1.8,0.4-2.1-1.4c-0.2,4.8,2,10.8,2.3,13.5
							c-1.7-0.4-0.3-2.7-1.6-3.5c-0.6,6.1,4.9,13.7,1.3,17.7c-0.5-0.5-0.5-1.1-0.5-1.6c-0.1,9,1.9,16.8,2.2,26.6
							c-3.2,9,4.3,2.9,3.9,11.7c-7.4,0.1-0.4,12-1.7,15.7l1.1-1.2c3,4.3,0.4,10.3-1.7,13.4c-0.4,6.6-0.3,16.4,2.8,23l-1.6-1.3
							c2,5.4-0.3,8.8,1.7,14.2c-0.6-0.1-1.5-2.2-2-0.1c-2.1,26.2,2.8,52.8,2.1,78.9c-1.5,49.9-2.4,112.1,3.7,161.2
							C1879.7,824.2,1910.7,847.4,1923.2,843.9z"/>
						<path class="st2" d="M1899.9,235c0,0.2-0.1,0.4-0.2,0.7C1899.9,235.4,1899.9,235.2,1899.9,235z"/>
						<path class="st2" d="M1897.7,352.2c0-0.5,0-1.1-0.1-1.7C1897.5,351.1,1897.5,351.6,1897.7,352.2z"/>
						<path class="st2" d="M1908.4,452.2l-0.3-2.1C1908.2,451,1908.3,451.7,1908.4,452.2z"/>
						<path class="st2" d="M1923.4,604c2.1-0.8,6,3.3,7.8-0.2c0.1-12.4-8.3-5.3-7.9-18l-2.4,6.5c3.8-0.4,5.9,4.2,6.2,9.2l-2.7,1.5
							c-0.8-0.8-1.5-1.8-2.1-2.7C1922,602.1,1924.1,601.7,1923.4,604z"/>
						<path class="st2" d="M1922.4,599.7c-0.1,0.1-0.1,0.2-0.2,0.3c0,0,0.1,0.1,0.1,0.2C1922.3,600.1,1922.3,599.9,1922.4,599.7z"/>
					</g>
				</g>
			</g>
		</g>
	</g>
</g>
</svg>
