<?xml version="1.0" encoding="utf-8"?>
<!-- Generator: Adobe Illustrator 24.1.2, SVG Export Plug-In . SVG Version: 6.00 Build 0)  -->
<svg version="1.1" id="Layer_1" xmlns="http://www.w3.org/2000/svg" xmlns:xlink="http://www.w3.org/1999/xlink" x="0px" y="0px"
	 viewBox="0 0 1920 1080" style="enable-background:new 0 0 1920 1080;" xml:space="preserve">
<style type="text/css">
	.st0{fill:#B40301;}
	.st1{fill:#BE2321;}
	.st2{fill:none;stroke:#B40301;stroke-width:3;stroke-miterlimit:10;}
</style>
<polygon class="st0" points="1920,0 0,0 1440,962 "/>
<g>
	<g>
		<g>
			<g>
				<g>
					<path class="st1" d="M1215,805.7c-0.6-0.5-0.7-0.7-0.6-0.9c-0.6-0.3-1.1-0.6-1.6-0.9L1215,805.7z"/>
					<path class="st1" d="M1368,889.6c0.1,0.1,0.2,0.1,0.3,0.2c-0.2-0.3-0.4-0.7-0.4-0.9C1367.4,889,1367.4,889,1368,889.6z"/>
					<path class="st1" d="M1329.5,868.4c-0.6-0.6-1.1-1.1-1.5-1.7C1327.9,866.9,1328.6,867.6,1329.5,868.4z"/>
					<path class="st1" d="M1234.3,819.9c-1.5-1.3-3-2.6-4.5-4C1230,816.7,1231.6,818.4,1234.3,819.9z"/>
					<path class="st1" d="M1334,872.3c-1.1-1.1-3.1-2.6-4.5-3.9C1330.8,869.7,1332.3,871,1334,872.3z"/>
					<path class="st1" d="M1436.6,935.4c-0.9-0.8-1.9-1.7-3-2.6c-0.1,0.1-0.4,0-0.4,0.1L1436.6,935.4z"/>
					<path class="st1" d="M0,18.2c3.4,2,4.1,2,3.9,1.3C3.2,19.4,2,19,0,18.2z"/>
					<path class="st1" d="M79.2,71.6c-0.7-0.3-1.3-0.6-1.9-0.8C78.6,71.4,79.5,71.8,79.2,71.6z"/>
					<path class="st1" d="M38.2,34.1c0-0.3-0.1-0.6-0.3-0.9C37.6,33.2,37.6,33.4,38.2,34.1z"/>
					<path class="st1" d="M607.4,385.8l-1.6-1.7C606,384.5,606.6,385.1,607.4,385.8z"/>
					<path class="st1" d="M713.2,453.9c0.3,0.2,0.6,0.4,0.9,0.6C713.8,454.3,713.5,454.1,713.2,453.9z"/>
					<path class="st1" d="M716.3,456c-0.7-0.5-1.4-1-2.2-1.5C715,455.2,715.8,455.8,716.3,456z"/>
					<path class="st1" d="M1438.2,940.2c3.1,0.9,9.5,4.9,10.3,4l-12-8.7C1440.4,939.1,1442,941.7,1438.2,940.2z"/>
					<path class="st1" d="M352.7,264.3c4,2.6,6.2,3.8,7.3,4.3c-2.5-1.5-5-3-7.5-4.4L352.7,264.3z"/>
					<path class="st1" d="M450.2,316.9c-0.1,0-0.3-0.1-0.4-0.1c0.2,0.1,0.4,0.2,0.6,0.3L450.2,316.9z"/>
					<path class="st1" d="M344.9,260.5c-0.6-0.2-1.2-0.4-1.6-0.3C344.9,261.1,345.1,261,344.9,260.5z"/>
					<path class="st1" d="M1191.9,795.8c-0.6-0.3-1.1-0.6-1.9-1C1190.8,795.3,1191.4,795.6,1191.9,795.8z"/>
					<path class="st1" d="M445,311.4l5.1,5.5c1,0.3,2,0.6,3.2,1.1C455.3,317.6,448.2,313,445,311.4z"/>
					<path class="st1" d="M344.9,260.5c1.9,0.6,4.6,1.9,7.6,3.6l-2.8-3C341.6,255.8,344.6,259.3,344.9,260.5z"/>
					<path class="st1" d="M-4.1,9.4c3.2,3.3-10.7-4.2-3.1,1.4l8.9,3.4c-1.8,0,1.9,3.9,2.3,5.3c4.2,0.4-8.1-9.4,2.6-5.6
						c2.8,0.4,9.6,5.3,12.9,7.9c-7.6-5.6,1.2-1.4,4.8,0.1c4.3,3.9,12.3,8.8,13.8,11.3c1,0.1,4.9,2.4,7.3,4.3l-0.1,0.7
						c6.1,3.4-1.6-1.8,0.3-1.4c4.3,2.6,10,8.2,16.8,12.7c-6.8-4.5-13-7.5-18.2-10.1c11.7,9.3-4.1,1.4-7.8,1c10.4,6,14.9,7.5,23.6,12
						c9.1,7.8-3.5,3.6-6.1,2.1c9.6,5.3,20.2,9.8,25.5,12.4c-8.2-2.3-7.5-0.9-14.7-3.2c6.4,6.1,8.9,5.6,12.9,7.1
						c-2.2-1.2-5.4-3.1-5.8-4c8.5,6,9.3,1.6,14.7,3.2c5.7,5.2,17.6,13.8,15.4,15.2l1.3-2.2c7.8,4.5,3.1,3.7,3.8,5.2
						c3.7,0.4,1.7-4,14.6,3.9c-4.2,2.1,11,7.8,8.6,10.7c6,3.7,9.8,3.8,15.7,8.3c5.6,6.3-12.1-2-15.4-5c-8.5-5.6,2.1-0.7-1.3-2.9
						l-8.7-4.5c4.1,3.7,12.4,10.4,10.4,11.1c8.7,4.9-5.6-5.9,3.9-0.7l4.9,4.4c9.6,5.3-0.3-3.7,11.8,3.8c-8.9-3.8,12.8,8.6,10.5,10.4
						c2.4-2.5,21.3,13.8,25.3,13.2l-5.8-4.8l0.5,2.2c-6.8-4.5-13-7.5-19.7-12.7c6.2,2.7-0.3-3.6,6.7-0.3c13.2,6.4,2.2,3.7,3.9,4.8
						l10.6,4.9l-5.7-5.6c7.8,4.5,18,11.2,28.2,18.3c14.1,11.9-2.9,0.3,6.9,9.2c5.3,2.7,4.6,1.2,11.3,6c-3.2-3.3-6.9-4.1-9.4-6
						c-2.1-4,13,7.5,13.4,5.3c2.4,2.6,1.4,2.9-1.4,2.2c12.1,7.1,23.1,14.9,26,20.1l6.5,1.2c19.4,14.1-15-7.2,0.9,5.5
						c6.8,4.8,13.6,9.3,17.2,10.5l-5.9-4.1c5.4,1.9,5.6,0.8,13.4,5c5.1,3.7,1.3,3.3,8.4,6.3c15,11.9,2.6,6.6-1.3,6.9
						c10.8,8.9-8.6,0.2-0.2,4.6l-1.8-1.9l13.9,5.2c-9.6-10-6-0.8-8.8-6.2l-6.6-4.7c2.9,0.2,17.8,11.5,20.2,11
						c-0.4,0.8-3.1,1.4-10.2-3.3l2.4,5.5c3.9,3,7.7,3,9.1,5.7c4.9,5.8-10.6-3.2,3.7,7.5c15.4,11.2,16.7,7.3,27.1,14.9
						c-0.7-1.3-3.4-3.1-6.7-5.4c4.1,1.4-1.5-3.4,4.8-0.2c2.1,4.1,13.5,11.6,22.2,17.3c-2.9-0.5,2,4.2-1.1,2.9
						c4.5,2.7,8.8,5.1,11.2,5.6c-16.7-13.2,18.1,9.9,5.6-1.1c13.6,9.3,15.2,12.7,23,19.4c-0.9,0.2-16.5-9.5-4.9-0.5
						c15.3,7.5-0.7-4.3,11.7,0.7l-8.3-6.6c0.5-3.1,15.6,9.7,18.2,10.7c5,4.2-8-4.4-3.8,0.7c7.8,6,12.8,7.2,17.4,11.6
						c-6.1-1.8-2.5-0.3-9.1-2.7c19,12.7-2.2,1.2,11.6,11.9c4.8,2.8,2.8-0.5,10,4.8c-3.2-4.6-2.3-4.8-14.2-12.9
						c5.8,0.4,15.4,11.2,24.8,15.4c-6.6-4.7-1.8-1.9-9.3-6.4c0.4-2.7-2.1-4.8,5.8-2.3c-8.2-4.7-13-4.8-23.8-12.9
						c-1.7-4.2,14.8,7.6,16.7,5c6.5,2.4,19.2,12.6,24.7,17.7c12,5.6,25.3,14.5,35.2,17.7c7.3,6.1,28.4,16.9,42.7,27.6
						c1.4,2.7,17.6,13,7.7,8.2c1.5,0.5,14,8.5,11.5,5.2c-1.5-0.5-2.7-1.7-5.4-3.4l3.4,0.1c6.7,5.4,16,8.9,22.2,14.4
						c1.4,2.7-13.4-7.9-9.7-3.3c8.1,2.2,35.5,19.2,43.4,25.9c5.5,4.2,4.9,6.5,7.2,8.3l9.7,6.3c0.7,1.4,0.4,2.2,1.7,4.1
						c4.5,3.6,8.1,5.2,11.3,6.8c11.7,9.7,4,6.7-3.3,3.6l-6.7-5.4c-5.8-2.6-12.9-8-9.7-3.3c3.7,2.2,4.1,1.4,5.6,1.9l3.5,3.8
						c4.7,2.1,16.6,9.5,16.2,7.3c7.9,6.7,18.4,12.1,25.2,18.2c-4.6-4.3,2.3-0.5,1.5-2.5l-8.8-6.5c7.5,4.5,18.7,10.6,24.9,16.1
						c-1.4,0.3-1.9,0.4,1.1,3.5c-4.1-4.4,13.7,7,4.1-1.5c-4.2-2.2-8-4.4-12.9-8c-2.1-4,6,1.1,11.1,3.1c5.9,3.3,17.1,10.1,25.1,14.5
						c4.5,3.6,4.5,6.6,13.4,10.8c-9.2-8.7,11.7,3.7,15.6,3.7c7.3,6,13.7,7,19,12.7c-3.6-1.5-15.6-9.7-19.6-10.4
						c-1.3,1,0.4,5.1-11.9-2.2c13.8,10.2,9.1,4.5,16,8.4l-5-3.1c2.6,1-1-2.8,3.4,0.1c16.4,11.7,18.5,15.1,28.7,24.3
						c-1.9-2.6,3.8,0,6.6,1.7c10.1,8.5-2,2.6,3.4,9c4.6,1.4,11.8,6.7,9.9,4.1c4.3,2.9,1.7,1.9,4.6,4.3c3.5,0.8,7.2,2.4,13.1,6.4
						c-0.9,0.2-2.3,0.5-7.8-3.7c6.1,4.8,7.2,8.3,3.7,7.5l-10-7.8c-5.6-1.9,9.4,7.1,8.1,8.1c-4.8-2.8-7.8-6-10.9-7.6
						c2,3.3,12,8.1,17.4,11.6c8.2,5.9,4.2,5.1,3.9,6c15.7,7.4-14.8-13.5-0.2-6.7c6.1,1.8,18.7,10.6,27.8,16.3c-6.5-7,2.6-2,12.2,3.6
						c-12-8.1-1.7-4.1-16.6-12.5l0.7-1.6c6,4.1,12.7,9.5,18.7,13.6c-1.5-0.5-0.3,0.8-2.5-0.3l18.3,11.4l-2.5-0.3
						c10.9,7.6,23.7,17.8,30.7,21.7c-5.4-3.4-9.1-7.9-3.2-4.6c3.6,1.5,10,4.8,14.9,8.3c1.5,3.4,20.6,16.2,7.4,9.8
						c16.1,9.6,10.6,5.4,26.1,14.4l-10.2-6.2c-0.4-2.2,9.4,1.2,0.4-6c11.7,6.7,6.2-0.5,21.3,9.3c5.5,4.9-3.6,1.4-12.2-3.9
						c4.2,2.9,7.5,6.3,12.5,8.3c2.5,3.2-9.3-3.4-9.1-2.7c7.6,5.2,0.3-0.8,7.8,3.7c13.7,7,6.6,7.7,19.4,14.9
						c-2.7-1.7-7.2-5.3-3.5-3.8c16.3,11,10,4.8,22.3,12.1c5.4,6.4,1.1,6.5,11.5,14.2l-6-4.1c3.5,3.8,8,7.4,12.3,10.3
						c23.5,13.4,43.9,22.9,67.9,36.9l-8.6-5.1c-2.4-2.5,7.4,3.8,7.8,3l4.6,4.3c2.3-0.4-10.7-9.1-6.7-8.4c0.6,0.6,2.2,1.8,3.3,2.4
						l-4.5-3.6c10.5,7.7,20.7,10.9,27.3,18.6c-21.1-13.8-5.9,1.9-26.9-11.2c11.2,6.8,0.9,2.8,1.6,4.1c5.5,4.2,3.5,0.8,9.6,5.6
						c-0.8,0.9-15.3-7.5-9.6-2.6c1.7-1.1,7.3,3.1,10.8,3.9c4.5,3.6-0.8,0.9,1,2.8c2.7,1.7,4.7,2.1,6.9,3.9l-2.4-0.3
						c12.3,10.3,5,1.3,19.8,11.8c1.3-1-3.5-3.8-10-7.8c-1.3-4.9,21.5,10,22.2,6.2c14.6,9.1-4.6-1.4,7.1,7.6c5.4,6.4-10.3-4-14.3-4.7
						l11.8,9.7c-5.9-0.4-13.1-6.4-16.9-5.7c9.3,6.4,8.6,5.1,18.7,10.6c-14.1-12.2,7.7,3,0.5-5.3c6.7,5.4,4.1,4.4,14.4,11.4
						c-6.9-3.9-1.6,1.8-10.3-4c14.1,9.2,10.7,6.1,24.8,15.3c5.5,1.2-12.6-11.7,5-1.7c3.6,2.4,2.5,2.6,0.4,1.2
						c11.5,8.7-1-3.8,7.1,0.4c5.4,3.3,6.8,5.3,4.4,4.2c8.5,4.3,4.9,0.2,10.4,3.4l-2.2-1.8c2.6,1-1.9-5.6,9.5,1.9
						c8.3,5.6,5,4.8,4.8,5.5c6.8,3.7,11.4,7.5,15.4,11.1c-0.2-0.6,0.5-0.6,2.5,0.7c11.3,6.8,5.3,5.7,9.2,8.7
						c14.9,11.3,0.2-4.5,17.6,7.1l-19.7-14.1c1.4-0.3,2.7-1.3-1.7-4.1c-1.3,1-9.1-2.7-15.7-7.4c-0.9-2.8,19.1,10.5,8.9,1.3
						c3.9,3,9.8,6.3,14.7,9.8c-6.1-1.8,15.9,11.1,6,7c22.2,14.4,24.7,17.6,45.6,30c-2.5-0.3-17-6.4-27-14.2l-0.3-1.5
						c-13.8-7.8,9.5,7.9,6.2,7.8c17.8,8.5,35.1,25.3,55.5,37.7c-2.9-3.2,1.3-1,2.7-1.2c-8.1-5.2-6.9-3.9-12.1-8.8
						c1.9-0.4,6.3,3.3,9.4,4.2c2.9,0.2-6-4.1-8.4-6.6c8,4.4,7.4,3.8,12.6,5.8c3.5,3.8,2.6,4,5.1,7.2c18.6,12.8,17.9,9.2,32.7,19.8
						c-8.2-5.9,3.1,3.9-5.7-2.6l4.9,3.5c-14.2-7-36.5-22-36.2-17.6c10.8,6.9,19.6,10.4,32.6,19.1l-0.9,0.2c9.3,6.4,0.3-0.8,2.9,0.2
						c11.2,6.1,11.7,11.9,20.3,14.7l-10.4-7.7c8.9,4.2-2.2-1.8,1-2.4c15.4,8.2,39.6,25.9,60.9,38.2c-5.2-5-6.8-6.1-14.5-11.4
						c5.2-0.3,8.1,2.2,5.8-2.6l-9.3-6.4l1.5-2.5c2.6,1.7,5,3.5,7.1,5.3c2.3-0.7,13.9,10,15.5,9l-8.1-5.2c-3.1-3.9,6.2,2.5,12.1,5.9
						c-4.2-5.1-17.4-11.6-28.8-19.1c0.2,1.4-12.3-4.3-1.4,3.2c-0.8,0.9-7.7-3-12.1-5.9c2.6,1-6.7-8.4,4-2.2
						c-10.6-5.4-4.3-2.9-15.6-9.7c2,0.4-19-12.7-16.4-14c-4.1-1.4-1.9,3.2-14.6-5.2c2.1,3.5,16,13.2,5.5,8.4l6.8,3.2
						c8.3,6.6-3.4-0.1,7.7,8.2c-3.3-2.4-10.7-6.2-11.5-8.2c0.9,5.1-18.1-9.9-20.1-8c-1.9-2.6-5.2-5-11.7-9c1.4-0.3-1.5-3.4,3.8-0.7
						c3.9,3,7,4.6,11,8.3c-0.4-4.7-15.7-11.9-25.7-19.6c1.3,1.2,1.5,1.8-1.7,0.3c-6.1-4.8-19.8-14.8-14.8-13.5l-32.5-21.3
						c0.3-0.8,4.8,2.8,6.9,3.9l-18-12.2c-3.6-3.8,6.8,3.1,9.2,3.4l-13-8.7l2.5,0.3c-3.6-1.5-18.8-11.3-21.4-15.3
						c-14.6-9.1-16.4-5.8-34.7-20.1c1.8-1.1,11.3,6.8,16.4,8.8c-3.4-3.1-15.6-9.7-16.6-12.5c-14.4-8.4-14.8-4.6-22.5-7.6
						c-11.4-7.5-0.4-2.2-0.5-2.9c-3.3-2.3-10.6-3.2-12.3-7.3c-6.2-2.5-10.2-3.3-2.4,2.7c-6-4.1-15-9-17-9.4c6.4,1-6.3-5.5-5.7-7.9
						c-8.8-6.5-28.6-20.6-38.7-23.9l4.2-0.8l-10.8-6.9c-6.9-6.9,10.4,4.7,15.8,8.1c-14.2-9.9-24-16.3-37-24.9
						c3.4,3.1,0.8,2.1,2.1,4.1c-5.1-2-10.8-6.9-15.6-9.7c-0.7-1.4,0.2-1.5,4,0.7l-9.1-5.7c1.8-1.1-2.6-4,6.9,0.9l-8.6-5.1
						c-8.8-6.5,1.3-1,3.8,0l-14.2-9.9c-5.7-2.6,2,3.3-8.2-2.9c-12.3-10.3-29.6-21.1-44.4-31.7l9.6,8.6c-8.8-6.5-8.7-2.8-12.2-3.6
						c-8.2-5.9-19.6-13.4-26.3-18.8c8.9,4.2,6.8,0.2,0-6c-16.9-11.6-14.5-6.2-24.6-11.7c9.5,1.9-11.2-9-8.4-9.6
						c-21.7-14.5-44.2-28-66.6-43.1c0.1,0.7,6.2,5.5,2,3.3c-8.5-5-11.6-8.9-12.3-10.3c-10.8-6.9-17.6-10-21.7-11.5
						c4.8,2.8,4.9,3.5,3.5,3.8c-10.8-6.9-6.5-6.9-17.5-12.3c-1.5-3.4,11.7,6.7,11.8,4.4c-9.3-6.4-15.6-9.7-23-13.5
						c-0.8-2.1,6.4,4,1.9-0.4c-15-9-33.2-19.7-44.5-26.5l-2-3.3c-7-4.6-11.9-7.4-15.5-8.9c-3.4-3.1-0.2-1.4,3.5,0.8
						c-9.3-6.4-21.5-13-26.9-16.5c1.4-0.3,5.4,3.4,7.4,3.8c-11.5-8.2-28.2-15.5-34.6-22.4c1.1,0.4,2.3,1.2,3.4,1.9
						c-17.3-11.8-33.1-21-52.1-33.5c-16.2-13.3-7-1.6-23.9-13.3c2.4-3.8-23-15.8-29.8-21.3l1.9,2.1c-9.4-4.2-20.1-13.3-25.3-18.2
						c-12.6-8.8-31.6-21.5-45.3-28.5l3,0.9c-11.2-6.1-16.9-11.7-28.1-17.7c0.5-0.1,4.7,2.1,0.8-0.9c-49.8-35.1-103-67.4-153.1-101.7
						c-96-65.8-215.8-147.2-312.7-208.1C48.7,13.5-6.7-1.4-4.1,9.4z"/>
					<path class="st1" d="M1180.4,791.2c-0.4-0.3-0.8-0.6-1.3-1C1179.6,790.7,1180,791,1180.4,791.2z"/>
					<path class="st1" d="M954.7,637.4c1.1,0.7,2.1,1.4,3.2,2.1C956.9,638.8,955.8,638.1,954.7,637.4z"/>
					<path class="st1" d="M757.8,512.4l4.1,2.6C760.2,513.8,758.9,513,757.8,512.4z"/>
					<path class="st1" d="M459.4,322c0.8,2.1-8.4-1.4-2.2,4.1c23.9,16.2,13,2.7,37.5,19.6l-11.7-9.7c-0.6,2.3-10.1-2.5-19.8-8.9
						l-2-3.3c1.9,0.7,3.9,1.6,5.9,2.5C463.5,323.8,463.5,325.4,459.4,322z"/>
					<path class="st1" d="M467.9,327.1c-0.2-0.2-0.4-0.3-0.5-0.5c-0.1,0-0.2-0.1-0.3-0.2C467.4,326.6,467.6,326.8,467.9,327.1z"/>
				</g>
			</g>
		</g>
	</g>
</g>
<path class="st2" d="M1920,0"/>
<g>
	<g>
		<g>
			<g>
				<g>
					<path class="st1" d="M1840.3,150.8c-0.3,0.4-0.6,0.4-0.8,0.3c-0.1,0.4-0.2,0.7-0.3,1.1L1840.3,150.8z"/>
					<path class="st1" d="M1870.3,44.7c0-0.1,0-0.1,0.1-0.2c-0.3,0.1-0.6,0.2-0.9,0.1C1869.9,45.1,1869.9,45.1,1870.3,44.7z"/>
					<path class="st1" d="M1862.7,71.4c-0.4,0.3-0.8,0.6-1.3,0.9C1861.7,72.4,1862.1,72,1862.7,71.4z"/>
					<path class="st1" d="M1848.2,138.1c-0.8,0.9-1.7,1.9-2.6,2.8C1846.3,140.9,1847.6,139.9,1848.2,138.1z"/>
					<path class="st1" d="M1865.2,68.5c-0.7,0.7-1.7,2-2.5,2.8C1863.6,70.6,1864.4,69.6,1865.2,68.5z"/>
					<path class="st1" d="M1893.2-1.2c-0.6,0.5-1.1,1.2-1.7,1.9c0.1,0.1,0.2,0.3,0.3,0.4L1893.2-1.2z"/>
					<path class="st1" d="M1462.7,969.7c0.8-2.3,0.5-2.9-0.2-2.9C1462.7,967.4,1462.8,968.3,1462.7,969.7z"/>
					<path class="st1" d="M1489.6,916.7c-0.1,0.5-0.1,0.9-0.1,1.4C1489.7,917.2,1489.8,916.5,1489.6,916.7z"/>
					<path class="st1" d="M1464.4,942.2c-0.3-0.1-0.6-0.1-0.9,0C1463.6,942.6,1463.9,942.6,1464.4,942.2z"/>
					<path class="st1" d="M1621.6,555.3l-1.3,1C1620.8,556.2,1621.2,555.9,1621.6,555.3z"/>
					<path class="st1" d="M1653.9,483.9c0.1-0.2,0.2-0.4,0.3-0.6C1654.1,483.5,1654,483.7,1653.9,483.9z"/>
					<path class="st1" d="M1655,481.9c-0.3,0.5-0.5,1-0.7,1.4C1654.6,482.7,1654.9,482.2,1655,481.9z"/>
					<path class="st1" d="M1897.9-1.7c-0.3-2.3,1.5-6.7,0.1-7.5l-4.8,7.9C1895.7-3.6,1898.1-4.3,1897.9-1.7z"/>
					<path class="st1" d="M1592.3,735.2c1.2-2.7,1.7-4.2,1.7-5c-0.6,1.7-1.3,3.4-1.9,5.1L1592.3,735.2z"/>
					<path class="st1" d="M1610.5,667.6c0,0.1,0,0.2,0,0.3c0.1-0.1,0.1-0.3,0.1-0.4L1610.5,667.6z"/>
					<path class="st1" d="M1591.2,740.7c0.1,0.4,0.1,0.9,0.3,1.2C1592,740.9,1591.7,740.7,1591.2,740.7z"/>
					<path class="st1" d="M1838.9,167.3c-0.1,0.4-0.1,0.8-0.3,1.3C1838.8,168,1838.9,167.6,1838.9,167.3z"/>
					<path class="st1" d="M1606.4,670.6l4.1-3c-0.1-0.7-0.1-1.4-0.1-2.4C1609.1,663.6,1606.9,668.4,1606.4,670.6z"/>
					<path class="st1" d="M1591.2,740.7c-0.2-1.4,0.2-3.3,0.9-5.4l-2.2,1.7C1587.3,742.5,1590,740.8,1591.2,740.7z"/>
					<path class="st1" d="M1454.4,971.3c2.4-1.9-0.2,7.8,3,2.8l0.1-6.5c0.8,1.5,3.7-0.8,5-0.8c-1.3-3.3-7.3,4.6-7.5-3.1
						c-0.7-2.2,1.9-6.6,3.4-8.8c-3.1,5-2.2-1.3-2-3.8c2.6-2.7,4.8-8.1,7.1-8.8c-0.3-0.8,0.6-3.4,1.8-5l0.9,0.2
						c1.2-4.2-1.4,0.9-1.8-0.5c1.1-2.9,5-6.4,7.2-11c-2.2,4.6-3,8.9-3.7,12.6c5.6-7.6,3.3,3.5,4.5,6.4c2.4-7.1,2.2-10.4,3.6-16.5
						c5-5.8,5.6,3.5,5,5.3c1.9-6.6,2.5-14.3,3.3-17.9c0.9,6.1,2.3,5.8,2.7,11.1c4.3-3.9,2.5-6,2.5-9c-0.4,1.5-1.2,3.7-2.1,3.9
						c3.2-5.6-2.2-7.1-2.7-11.1c3.5-3.6,8.2-11.4,10.7-9.4l-3.1-1.5c1.8-5.4,2.9-1.8,4.2-2.1c-1.1-2.9-5.3-2.1-1.8-10.9
						c4.2,3.8,4.2-7.3,8.5-4.8c1.7-4.1,0.1-7.1,2.7-10.9c4.8-3.2,2.9,9.2,0.9,11.3c-2.7,5.7-1.7-1.8-2.8,0.5l-1.4,6.1
						c2.5-2.6,6.5-7.9,8.2-6.2c1.8-6-4.4,3.4-2.5-3.3l3-3.1c1.9-6.6-4.1-0.5-0.7-8.6c-0.5,6.4,4.3-8.5,7.3-6.4
						c-3.9-2.4,6.6-14.4,4.1-17.7l-3,3.7l2.3,0c-2.2,4.6-3,8.9-6.1,13.3c0.4-4.4-4-0.5-3.2-5.4c1.6-9.3,3.3-1,3.8-2.2l1.1-7.5
						l-3.9,3.5c1.8-5.4,5.1-12.3,8.8-19c7.5-9,1.6,2.4,7.6-3.8c0.8-3.7-0.6-3.4,2-7.9c-2.4,1.9-1.7,4.7-2.8,6.4
						c-3.7,0.9,3-8.9,0.3-9.7c1.9-1.4,2.8-0.5,3.1,1.5c2.9-8.3,7.1-15.6,11.8-16.9l-1.4-4.9c7.8-12.8-1.8,10.6,5.9,0.3
						c2.6-4.5,4.8-9.1,4.6-11.8l-2.1,4c-0.1-3.9-1.5-4.3-0.1-9.8c2.1-3.3,3.2-0.4,3.6-5.5c7.1-9.7,6.4-0.8,8.4,2.3
						c5.6-6.9,4,6.9,5.3,1l-1.4,1.1l-0.1-10.1c-7.3,5.8,1.7,4.6-3.3,5.8l-2.5,4.4c-1-2.3,5.4-12,3.9-14c1.1,0.4,2.9,2.8,0.7,7.5
						l5.3-0.8c1.7-2.5,0.1-5.6,2.6-6.2c4.5-2.8,1,7.9,7-1.5c6.2-10.2,1.1-11.9,5.4-18.8c-1.2,0.3-2,2.1-3.3,4.3
						c-0.1-3-3.3,0.6-2.3-3.9c3.7-0.9,7.4-8.6,10.3-14.4c0.6,2.2,3.9-0.8,3.8,1.4c1.1-3.1,2.1-6,1.5-7.9c-7.9,10.8,3.6-12.5-3.6-4.7
						c4.8-9.1,8-9.7,12.3-14.7c0.6,0.8-3.7,11.4,1.5,3.8c2-10.7-4.6-0.2-4.2-9.2l-3.9,5.4c-3.7-0.9,4.3-10.6,4.4-12.5
						c2.7-3.2-1.6,5.5,2.4,3.1c3.5-5,2.8-8.8,5.8-11.7c0.5,4.5,0.7,1.9,0.8,6.8c6.4-12.7,2.3,2,8.6-7c1.1-3.3-1.8-2.3,1.2-7.1
						c-3.9,1.7-4.5,0.9-8.6,8.9c-2.1-4.6,6.2-10.1,6.9-16.8c-2.5,4.4-1.4,1.1-3.3,6.2c-3.3-0.8-4.6,0.7-5.1-5.1
						c-1.8,5.6,0.2,9.5-4.5,16.5c-4,0.5,2.3-10.3-1.5-12.4c-0.1-4.7,6.1-12.9,9.7-16.3c1.3-8.5,5.7-17.4,5-24.7
						c3.8-4.7,7.1-19.4,13.1-28.8c2.5-0.6,7.3-11.6,6.1-4.5c-0.1-1.1,3.7-9.5,1-8.2c0.1,1.1-0.8,1.8-1.6,3.6l-1.4-2.7
						c3.3-4.3,3.3-11.1,6.9-15c2.5-0.6-3.2,9.2,0.4,7.1c-1-6,6.7-24.7,11-29.7c2.4-3.6,5.3-2.7,6.4-4.2l3-6.6c1.2-0.3,2.3,0.1,4-0.5
						c2.2-2.9,2.4-5.5,2.9-7.7c6-7.5,5.9-1.9,5.5,3.3l-3.3,4.3c-0.5,4.1-3.5,8.8,0.4,7.1c1-2.5-0.1-3-0.2-4.1l2.8-2.1
						c0.4-3.3,3.7-11.4,1.4-11.5c4.2-5,5.9-12.4,10-16.7c-3,2.8-1.5-1.9-3.5-1.7l-3.6,5.8c1.9-5.1,4.1-12.9,7.7-16.8
						c0.9,1.2,1.2,1.6,3.6-0.2c-3.3,2.4,2.2-9.6-3.5-3.6c-0.7,2.9-1.6,5.5-3.5,8.8c-3.7,0.9-1.3-4.6-1.3-8.3
						c1.3-4,4.2-11.7,5.8-17.3c2.2-2.9,5.6-2.3,6.6-8.6c-6,5.7-0.8-8.6-2.4-11.7c3.8-4.7,2.1-9.6,6.4-12.7
						c-0.2,2.6-4.3,10.6-3.4,13.6c1.7,1.2,5.7,0.7,2.6,9.1c5.8-9.1,1.3-6.4,2.8-11.2l-1.4,3.4c0-1.9-2.8,0.2-1.4-2.7
						c6.3-10.9,9.3-11.9,15.4-18.3c-2.2,1-1.7-3.1-0.9-4.9c5.4-6.4,3.8,2.1,8.8-1c-0.4-3.4,2.6-8.1,0.4-7.1c1.4-2.9,1.4-1,3-2.8
						c-0.6-2.6-0.4-5.3,1.7-9.2c0.6,0.8,1.5,1.9-0.9,5.5c2.8-4,6.4-4.1,7-1.5l-4.6,6.5c0.2,4.1,4.1-6.1,5.8-4.9
						c-1.1,3.3-3.5,5-4,7.3c3-1,4.1-8,5.7-11.7c3.2-5.4,4.1-2.4,5.1-2c1.7-11.1-9.1,9.2-7.6-1.1c-0.6-4.5,4.1-12.9,6.6-19.1
						c-5.2,3.8-3.4-2.4-1.1-9c-4.1,8-4,0.5-7.1,10.8l-2.2-0.9c2.1-4,5.4-8.3,7.5-12.3c0.1,1.1,1.1,0.4,0.7,1.9l5.1-12.4l0.7,1.9
						c4-7.3,10.1-15.5,11.6-20.3c-1.6,3.7-5.2,5.7-3.9,1.7c0.2-2.6,1.2-7,3.1-10.3c3.3-0.6,9.6-13.3,8-4.1c4-11,1.7-7.4,5.2-18
						l-2.7,7c-2.3-0.1-2.7-7.2-7.1-1.5c2.6-8.1-3.2-5,1.5-15.2c3.2-3.5,3.2,3.1,0.8,9c1.6-2.8,3.9-4.8,4.1-8.4
						c2.6-1.4,0.1,6.7,0.8,6.8c2.7-5.1-1.1-0.4,0.9-5.5c2.2-9.6,5.9-3.8,8.7-12.6c-0.8,1.8-3,4.7-2.8,2.1c5.6-10.9,1.2-7,4.3-15.5
						c5-3.1,7,0.4,11.2-6.5l-2.1,4c2.8-2.1,5-5,6.5-7.9c5.2-16.2,7.3-30.6,12.9-47.1l-2.1,5.9c-1.9,1.4,1.2-5.2,0.1-5.6l3-2.8
						c-1.5-2-5.8,6.8-6.7,3.8c0.5-0.3,1.1-1.4,1.3-2.2l-2.2,2.9c4.3-6.9,3.6-14.4,9.6-18.2c-6.7,14.2,4.7,5.1-1.2,19.3
						c2.9-7.7,2.8-0.2,4-0.5c2.4-3.6-0.6-2.7,2.3-6.6c1.4,0.8-2,10.7,1.1,7.2c-2-1.6,0.4-5.2-0.2-7.8c2.2-2.9,1.4,0.8,2.8-0.2
						c0.8-1.8,0.4-3.3,1.5-4.8l0.8,1.9c6.5-7.9-0.7-3.8,5-13.5c-1.7-1.2-2.8,2.1-4.6,6.5c-5.1,0.1,2.2-15.2-2.5-16.6
						c4.2-9.9,0.4,3.4,5.6-4.2c5-3.1-0.1,7.5,0.8,10.5l6-7.6c2.1,4.6-1.7,9.3,0.7,12.4c3.3-6.2,2.1-5.9,4.1-12.9
						c-7.9,8.9,0.1-5.6-6.3-1.4c3.3-4.3,3.3-2.4,6.8-9.4c-1.5,4.8,2.8,1.6-0.1,7.5c4.5-9.5,2.4-7.3,6.9-16.8c-1-4.2-8,7.8-4.1-4.3
						c1.2-2.4,1.9-1.5,1.2-0.1c5-7.5-3.9,0.1-2.6-5.6c1.5-3.7,3.1-4.4,2.9-2.7c1.3-6-1.8-3.9-0.6-7.7l-1.1,1.4
						c0-1.9-5.6,0.5-1.9-7.2c2.8-5.5,3.3-3.1,4.2-2.8c1.3-4.7,3.7-7.7,6.1-10.2c-0.6,0.1-1-0.5-0.3-1.8c2.9-7.7,4.2-3.1,6-5.7
						c6.5-9.8-5.2-1,0.5-12.7l-7.6,13.1c-0.9-1.2-2.6-2.4-4,0.5c1.7,1.2,0.8,6.8-1.7,11.1c-2.8,0.2,3.8-13.3-2.4-6.8
						c1.7-2.5,3-6.6,4.9-9.8c0.5,4.5,5.9-10.5,5.5-3.5c6.9-15,9.5-16.3,14.7-30.6c0.7,1.9,0,12.3-4.6,18.8l-1.6-0.1
						c-2.9,9.6,4.9-6.1,6.2-3.4c2-12.6,13.8-23.2,19.3-37.1c-2.3,1.7-1.7-1.2-2.6-2.4c-2.4,5.5-1.5,4.8-4.9,8
						c-1.2-1.6,1-4.4,0.7-6.7c-1-2.3-2.1,4-4,5.4c1.6-5.5,1.2-5.2,1.2-8.9c2.8-2.1,3.4-1.3,6.1-2.7c6.7-12.4,2.8-12.5,8.5-22.3
						c-3.2,5.4,3.1-1.7-0.5,4.1l1.9-3.3c-1.9,10-9.5,24.9-4.6,25.5c3.2-7.3,3.5-13.6,7.8-22.4l0.6,0.8c3.3-6.2-1.1-0.4-1.1-2.3
						c2.1-7.7,8.6-7,8.1-13.4l-4.3,6.9c1-6.3-1.1,1.4-3.2-1.3c2.8-10.7,12.6-26.6,17.5-41.3c-3.5,3.2-4.1,4.3-6.8,9.4
						c-2.6-4.2-1-6-5.5-5.1l-3.3,6.2l-3.5-1.7c0.8-1.7,1.9-3.3,3-4.7c-1.7-2,5.5-9.2,3.6-10.6l-2.4,5.5c-3.1,1.7,0.2-4.5,1.5-8.5
						c-4.1,2.4-5.7,11.7-9.4,19.3c1.5,0.1,0.3,9,4.3,1.7c1.4,0.8-0.1,5.6-1.5,8.5c0-1.9-6.7,3.8-4.3-3.6c-1.7,7.4-1.4,2.9-4.3,10.6
						c-0.4-1.5-6.4,12.7-9,10.4c0.1,3,4.5,2.1,0.4,10.7c3.1-1,8.2-10.3,7.2-2.8l0.7-4.8c3.9-5.4,1.3,2.7,6.1-4.5
						c-1.3,2.2-2.4,7.4-4.4,7.6c5.4,0.3-3.6,12.5-0.5,14.5c-2.2,1-3.4,3.2-5.2,7.6c-0.9-1.2-3.2,0.6-2.4-3.1
						c1.7-2.5,2.2-4.7,4.7-7.2c-5.2-0.6-6.9,10.2-11.4,16.8c0.8-0.8,1.4-0.9,1.1,1.4c-2.8,3.9-8.4,13-9.1,9.2l-10.4,21.9
						c-1.1-0.4,1.1-3.3,1.5-4.8l-6.2,12c-2.8,2.1,0.7-4.8-0.1-6.7l-4.3,8.7l-0.7-1.9c-0.2,2.6-4.8,12.8-8.3,14.1
						c-4.2,9.9,0.4,12-8.1,23.9c-2-1.6,2.9-7.7,3-11.4c-2,2.1-4.3,10.6-7.1,10.8c-3.4,9.9,1.1,10.9,1,16.5c-3.7,7.7-2.3-0.1-3.1-0.1
						c-1.3,2.2,1,7.9-3.1,8.4c-0.2,4.5,0.7,7.5,4.1,2.5c-2.1,4-3.9,10.3-3.4,11.8c-1.6-4.9-3.6,3.9-6.5,3
						c-3.7,5.8-11.3,18.9-10.6,26.4l-2.7-3.5l-3.2,7.3c-4.9,4.2,0.9-7.4,2.5-11.1c-5.3,9.4-8.3,16-12.6,24.8c2-2.1,2-0.3,3.7-0.9
						c0,3.7-3.2,7.3-4.3,10.6c-1.2,0.3-1.8-0.5-0.9-3l-2.6,6.2c-2-1.6-3.4,1.3-1.9-5.3l-2.1,5.9c-3.6,5.8-1.7-1.2-1.7-3.1l-5.2,9.4
						c-0.5,4.1,3-1,0.2,6c-6.5,7.9-11.4,19.6-17.1,29.4l5.7-6.1c-3.6,5.8,0.5,6.4,1.1,9c-3.2,5.4-6.8,13.1-10.2,17.4
						c1-6.3-2.7-5.4-6.8-1.1c-6,11.3-0.8,10.4-2.7,17.4c-1.9-7.2-5.5,7.2-7.3,4.9c-7.2,14.6-13,29.9-20.6,44.9c0.8,0,3.6-3.9,3-1
						c-2.1,5.9-5.2,7.6-6.5,7.9c-3.2,7.3-3.9,12.1-3.8,15.1c1.1-3.3,1.9-3.3,2.8-2.1c-3.2,7.3-5.2,3.8-6.5,11.6
						c-3.3,0.6,2.6-8.1,0-8.6c-3.3,6.2-4.3,10.6-5.5,15.8c-2,0.3,1.8-4.4-1.2-1.6c-3.9,10.2-8.2,22.7-11.1,30.4l-3,1
						c-2.2,4.7-3.4,8-3.6,10.6c-2,2.1-1.6-0.1-0.6-2.6c-3.3,6.2-5.6,14.7-7.2,18.3c-0.9-1.2,1.6-3.7,1.2-5.2
						c-4.4,7.6-5.5,19.5-10.7,23.4c0-0.8,0.3-1.6,0.7-2.3c-6,11.6-9.7,22.4-15.9,35.2c-8.2,10.4,1.2,5.3-4.9,16.5
						c-5.3-2.6-8.2,15.4-11.6,19.7l1.5-1.1c-0.7,6.7-6.5,13.5-10,16.7c-4.6,8.3-11,21.1-13.1,30.7l-0.3-2.3c-2.1,7.7-6,11.3-8.2,19
						c-0.3-0.4,0.4-3.4-1.4-0.8c-18.7,33-32.7,69.3-50.4,102.7c-33.9,64-75.5,144-103.4,209.7C1436.4,930,1443.1,971.3,1454.4,971.3
						z"/>
					<path class="st1" d="M1838.6,175.6c-0.2,0.3-0.4,0.5-0.6,0.9C1838.3,176.1,1838.5,175.8,1838.6,175.6z"/>
					<path class="st1" d="M1759.9,326.3c0.4-0.7,0.7-1.4,1-2.2C1760.5,324.8,1760.1,325.5,1759.9,326.3z"/>
					<path class="st1" d="M1701.7,459.5l1.2-2.8C1702.3,457.9,1701.9,458.8,1701.7,459.5z"/>
					<path class="st1" d="M1612.4,661.2c2-0.3,2.1,6.5,5.7,2.5c8.3-16-2.5-9.8,6.3-26.2l-6,7.5c2.9,0.9,1.4,7.6-1.6,14.1l-3,1
						c0-1.4,0.1-2.8,0.3-4.2C1612.6,658.2,1614.4,658.5,1612.4,661.2z"/>
					<path class="st1" d="M1614.5,655.3c-0.1,0.1-0.2,0.2-0.3,0.3c0,0.1,0,0.2,0,0.2C1614.2,655.7,1614.3,655.6,1614.5,655.3z"/>
				</g>
			</g>
		</g>
	</g>
</g>
</svg>
